<?xml version="1.0" encoding="utf-8"?>
<!-- Generator: Adobe Illustrator 19.0.0, SVG Export Plug-In . SVG Version: 6.00 Build 0)  -->
<svg version="1.1"
	 id="svg3680" xmlns:cc="http://creativecommons.org/ns#" xmlns:svg="http://www.w3.org/2000/svg" xmlns:dc="http://purl.org/dc/elements/1.1/" xmlns:sodipodi="http://sodipodi.sourceforge.net/DTD/sodipodi-0.dtd" xmlns:inkscape="http://www.inkscape.org/namespaces/inkscape" xmlns:rdf="http://www.w3.org/1999/02/22-rdf-syntax-ns#" sodipodi:docname="LOGO MINEO GAMES 2.svg" inkscape:version="0.92.1 r15371"
	 xmlns="http://www.w3.org/2000/svg" xmlns:xlink="http://www.w3.org/1999/xlink" x="0px" y="0px" viewBox="-70 182 470 430"
	 style="enable-background:new -70 182 470 430;" xml:space="preserve">
<style type="text/css">
	.st0{fill:#FFFFFF;stroke:#2D2D2D;stroke-miterlimit:10;}
	.st1{fill:none;stroke:#2D2D2D;stroke-width:1.5;stroke-miterlimit:10;}
	.st2{fill:#2D2D2D;}
	.st3{fill:#232323;}
	.st4{fill:url(#SVGID_1_);}
	.st5{fill:url(#SVGID_2_);}
</style>
<ellipse class="st0" cx="165" cy="397" rx="214.9" ry="208.8"/>
<link  rel="stylesheet" href="https://fonts.googleapis.com/css?family=Kaushan+Script"></link>
<sodipodi:namedview  inkscape:window-x="-9" inkscape:window-y="-9" inkscape:window-width="1920" inkscape:window-height="1001" inkscape:current-layer="svg3680" inkscape:pageopacity="0" inkscape:pageshadow="2" inkscape:window-maximized="1" objecttolerance="10" inkscape:zoom="1.9044743" borderopacity="1" bordercolor="#666666" inkscape:cx="304.99279" pagecolor="#ffffff" id="namedview3682" inkscape:cy="327.34327" showgrid="false" gridtolerance="10" guidetolerance="10">
	</sodipodi:namedview>
<path d="M185.9,417.4"/>
<path d="M177.6,416.3"/>
<path class="st1" d="M185.2,415.8c2.3-5.7,2.8-10.7,2.8-13.9c0-2.3,0-4.8-0.8-7.9c-0.4-1.3-2.1-6.9-7.4-11.5
	c-3.8-3.3-7.5-4.5-8.5-4.8c-4.1-1.3-6-0.5-11.6-0.9c-2.4-0.2-8.3-0.7-12.1-2.3c-7.9-3.6-10.6-14.1-11.6-19.6"/>
<path d="M177.8,421"/>
<path d="M179.3,416.9"/>
<path d="M179,415.9"/>
<path d="M179.8,414.1"/>
<path d="M107.6,284.2"/>
<g>
	<g>
		<path class="st2" d="M101.8,296.2c1.1,0,2.1-0.8,2.1-1.6c0,0,0,0,0-1.2c0-6.6,0-12,0-15.9c0-1.2,0-1.2,0-1.2c0-1.3-1-2.4-2.2-2.4
			c-1.1,0-2.1,1.1-2.1,2.6c0,0,0,10.4,0.1,17.2c0,0.8,0,0.8,0,0.8C99.8,295.5,100.7,296.2,101.8,296.2z"/>
		<path class="st2" d="M99.5,297.5c0,0.2,0,0.3,0,0.3s2.2,0,3,0s1.5,0,1.5,0s0-0.1,0-0.4L99.5,297.5
			C99.5,297.5,99.5,297.5,99.5,297.5z"/>
		<path class="st2" d="M203,296.6c7.5,0,12.2-0.1,12.2-0.9c0-0.9-4.7-0.9-12.2-0.9s-12.2-0.1-12.2,0.9
			C190.8,296.7,195.5,296.6,203,296.6z"/>
		<path class="st2" d="M203,288.5c7.5,0,12.2-0.1,12.2-0.9c0-0.9-4.7-0.9-12.2-0.9s-12.2-0.1-12.2,0.9
			C190.8,288.6,195.5,288.5,203,288.5z"/>
		<path class="st2" d="M188.3,243.5c0-0.8,0-1.5,0-2.3c0-3.3-0.4-17.4-0.5-18.8c0-0.5-0.1-1.2-0.7-1.4c-0.5-0.2-0.9,0.1-1.3,0.3
			c-0.5,0.3-0.8,0.6-1.2,0.8c-1.8,1.2-18.5,15.8-22.2,18.9s-3.7,3.1-3.7,3.1c-2,1.7-6.7,3.1-10.4,3.1s-9.8,0-13.5,0s-9.8,0-13.5,0
			c-3.8,0-9.8,0-13.5,0c-3.8,0-8.7-1.7-11.1-3.7c-2.3-2-23.8-20-25.1-21c-0.9-0.8-3.9-3.7-4.5-3.5c-0.7,0.3-0.7,1.5-0.8,2.7
			c-0.2,4.3-0.2,33.7-0.1,40.1c0,0.1,0,0.2,0,0.3c0,0,0,0,0,0.1c0,1.5,0,4,0.1,7c0.1,0.9,0.1,2.3,0.2,3.8c0.1,0.7,0.4,1.3,1,1.6
			c0.6,0.3,1,0,1.4-0.1c0.7-0.3,0.9-0.8,1.7-1.3c0.6-0.5,1.1-0.9,1.7-1.4c2.4-2,4.9-3.9,7.3-5.9c2.4-2,4.9-3.9,7.4-5.8
			c0.6-0.5,3.9-3.1,7.1-5.4c3.3-2.3,4.3-2.9,4.3-2.9c1.3-0.8,2.8-0.2,3.3,1.2c0,0,1.3,3.8,4.5,13.2s7.5,22.4,12.2,36.4
			c4.7,14,10.4,31.3,12.8,38.3c2.1,6.3,2.2,6,4.2,15.3l8.7-3.2c14.8-4.8,29.5-14,37.6-27.7c2.2-3.7,3.7-7.4,4.6-11.3
			c1-3.9,1.5-8,1.6-12.1c0.2-8.5,0.3-16.9,0.3-25.5s-0.1-17-0.1-25.5C188.3,248.6,188.3,246.1,188.3,243.5z M152.8,273.8
			c1.1,0,2.2,1.1,2.2,2.4c0,0,0,0,0,1.2c0,3.9,0,9.3,0,15.9c0,1.2,0,1.2,0,1.2c0,0.8-0.9,1.6-2.1,1.6s-2.1-0.8-2.1-1.7
			c0,0,0,0,0-0.8c0-6.7-0.1-17.2-0.1-17.2C150.8,274.9,151.7,273.8,152.8,273.8z M155.2,297.7c0,0-0.7,0-1.5,0c-0.8,0-3,0-3,0
			s0-0.1,0-0.3c0,0,0,0,0-0.1h4.5C155.2,297.6,155.2,297.7,155.2,297.7z M187,267.1c-0.1,3.5-3.6,3.5-7.8,0
			c-7.5-6.2-9.4-8.1-15.3-12.7c-0.3-0.2-0.8-0.6-0.9-1.1c-0.8-2.4,3.1-5.7,6.7-9c9.6-8.8,15.5-16.3,16.7-15.4
			c0.1,0.1,0.1,0.3,0.3,0.7C187.1,230.8,187.1,263.6,187,267.1z"/>
		<path class="st2" d="M203.2,302.7c-7.5,0-12.2-0.1-12.2,0.9c0,0.9,4.7,0.9,12.2,0.9s12.2-0.1,12.2-0.9
			C215.4,302.7,210.7,302.7,203.2,302.7z"/>
	</g>
	<path class="st2" d="M185.1,414.8c-1.2-0.5-2.3-0.8-2.5-0.8c-3.6-1-6.9-1.4-8.3-1.3c-7.4,0.2-13.1,13.1-13.6,14.6
		c-1.9,4.3-4.4,10.1-2,16.2c1.6,4,4.8,6.4,6.6,7.7c5,3.7,10.1,4.3,12.6,4.4c2.8,0.1,6.9,0.3,10.6-2.3c2.2-1.6,3.5-3.8,3.9-4.5
		c0.9-1.7,1.4-3.2,1.8-4.4c0.5-1.7,0.7-3,0.9-4.8c0.1-0.8,0.2-2.1,0.5-4.5c0.2-2,0.3-3,0.3-3.9c0.1-2.2,0.2-3.2,0.1-4.3
		c-0.1-1.8-0.2-3.7-1.1-5.4C193,417.8,189.5,416.4,185.1,414.8z M186.4,421.9c0.2-0.9,0.1-1.7,0.1-2.4c-0.1-0.8-0.2-1.5-0.3-2.1
		c1.4,0.6,2.5,1.2,3.4,1.7c1.3,0.9,2.4,1.6,3.3,3c0.7,1,0.8,2,0.9,3.3c0.3,1.7,0.2,2.9,0,5c-0.1,1-0.2,2.5-0.5,4.2
		c-2.3-1.8-3.9-3-4.8-3.5c-0.6-0.4-1.3-0.8-1.3-0.8c-0.3-0.2-0.7-0.4-1-0.6c-0.5-0.2-0.9-0.5-1.4-0.8c-1-0.5-1.9-0.8-2.5-1.1
		c0.2-0.3,0.5-0.6,0.8-0.9c0.6-0.6,0.8-0.7,1.2-1c0.8-0.7,1.1-1.3,1.3-1.8C186.1,423.2,186.3,422.4,186.4,421.9z M184.5,422.8
		c-0.7,1.8-2.4,3.6-3.4,3.2c-0.9-0.4-1.1-2.7-0.4-4.4c0.8-1.6,2.5-3.1,3.5-2.6C185.1,419.4,185,421.4,184.5,422.8z M171.7,425
		c-0.7-0.1-0.8-0.1-1.1-0.1c-0.2,0-0.3,0-0.4,0c-0.2,0-0.8,0-1.8,0c0.4-0.8,0.8-1.9,1.6-3.1c0.8-1.3,1.3-2.2,2.2-3.1
		c0.8-0.8,2-2.1,3.9-2.6c1.8-0.6,3.5-0.3,4.8,0c1.1,0.2,2.1,0.6,2.6,0.8c-0.6,0.3-1.2,0.7-1.9,1.2c-0.3,0.3-1,0.9-1.6,2
		c-0.3,0.4-0.6,0.9-0.8,1.8c-0.1,0.4-0.3,1-0.2,2c0.1,0.8,0.3,1,0.2,1.8c-0.1,0.4-0.2,0.8-0.3,0.9c-1-0.3-1.9-0.6-2.5-0.8
		c-0.7-0.2-1.3-0.3-2.2-0.5C173.3,425.2,172.6,425.1,171.7,425z M190.1,448c-0.6,0.8-2.1,2.3-4.4,3.4c-3.2,1.3-6.1,0.7-8.9,0.1
		c-2-0.5-5.1-1.1-8.1-3.6c-1.1-0.9-2.7-2.3-3.8-4.6c-1.7-3.8-0.8-7.2-0.4-8.6c0.6-2.1,1.2-4.5,3.4-5.8c1.7-0.9,3.4-0.8,6-0.6
		c3.1,0.3,5.4,1.1,7.7,2.2c3.5,1.4,5.6,2.8,6.6,3.5c2.1,1.4,3.1,2.2,3.8,3.6c1,2.1,0.7,4,0.5,5.4C191.8,445.6,190.4,447.6,190.1,448
		z"/>
	<path class="st3" d="M164.5,423.5C164.4,423.6,164.5,423.5,164.5,423.5L164.5,423.5z"/>
</g>
<linearGradient id="SVGID_1_" gradientUnits="userSpaceOnUse" x1="-20.8998" y1="375.1729" x2="156.8846" y2="375.1729" gradientTransform="matrix(1 0 0 -1 0 798)">
	<stop  offset="0" style="stop-color:#008CB7"/>
	<stop  offset="0.219" style="stop-color:#018AB5"/>
	<stop  offset="0.3251" style="stop-color:#0385AD"/>
	<stop  offset="0.4068" style="stop-color:#077CA0"/>
	<stop  offset="0.4763" style="stop-color:#0D708E"/>
	<stop  offset="0.582" style="stop-color:#155F76"/>
	<stop  offset="0.6725" style="stop-color:#1F4B58"/>
	<stop  offset="0.7882" style="stop-color:#2D2D2D"/>
	<stop  offset="0.861" style="stop-color:#2A3335"/>
	<stop  offset="1" style="stop-color:#2D2D2D"/>
</linearGradient>
<path class="st4" d="M18.5,457.1c-0.1,0.1-0.2,0.1-0.4,0.1c-0.1,0-0.4,0-0.7,0c-0.8,0-1.7-0.1-2.7-0.4s-2.1-0.6-3-0.9
	c-1-0.4-1.9-0.8-2.5-1.2c-0.8-0.5-1.1-0.8-1.3-1.2c-0.1-0.8-0.1-1.6-0.1-2.4s0-1.7,0-2.4c0-6.3,0.5-12.9,1.4-19.8
	c0.9-6.9,2.4-14.3,4.6-22.4c0.2-0.8,0.5-1.8,0.8-3c0.3-1.2,0.6-2.5,0.8-3.9c-1.3,1-2.9,2.8-4.8,5.1c-1.9,2.3-3.9,5.1-5.9,8.3
	c-2.1,3.2-4.1,6.7-6.2,10.5c-2.1,3.8-3.9,7.7-5.6,11.6c-1.7,3.9-3.1,7.8-4.3,11.6c-1.2,3.9-2,7.4-2.3,10.6c-2.7-0.8-4.6-1.6-5.6-2.3
	s-1.6-1.8-1.6-2.9c0-1,0.3-2.4,0.9-4.3s1.5-4,2.6-6.6c1.1-2.5,2.5-5.4,4.1-8.5s3.5-6.5,5.4-10.1c2.3-4.1,4.5-8,6.7-11.6
	c2.2-3.6,4.3-6.9,6.4-9.8c2.1-2.9,4.1-5.4,6.1-7.6s3.9-3.8,5.9-4.9c0.8,0,1.9,0.2,3.2,0.6c1.3,0.4,2.6,0.8,3.9,1.4
	c1.3,0.6,2.3,1.1,3.4,1.7c0.9,0.6,1.5,1.1,1.7,1.5c-0.8,1.6-1.7,3.9-2.8,7.1c-1,3.2-2.2,6.8-3.3,10.7c-1.1,4-2.2,8.3-3.1,12.7
	c-1,4.5-1.8,8.7-2.3,12.9c1.3-3.1,2.8-6.3,4.5-9.7c1.7-3.4,3.6-6.7,5.4-10c1.9-3.3,3.9-6.5,5.9-9.6c2-3.1,3.9-5.9,5.9-8.5
	c1.9-2.5,3.7-4.8,5.4-6.8c1.7-1.9,3.1-3.3,4.4-4.2c0.8,0,1.9,0.2,3.2,0.6c1.3,0.4,2.6,0.8,3.9,1.4c1.3,0.6,2.3,1.1,3.4,1.7
	c0.9,0.6,1.5,1.1,1.7,1.5c-1.8,3.2-3.4,7.1-4.7,11.7c-1.3,4.6-2.5,9.5-3.4,14.6c-0.9,5.1-1.6,10.1-2.2,15.1c-0.5,5-0.8,9.5-0.8,13.4
	c0,1.3,0,2.6,0,4s0.1,2.9,0.2,4.4c-0.8,0-1.7-0.1-2.8-0.3c-1.1-0.2-2.2-0.5-3.2-0.8c-1-0.4-2-0.8-2.8-1.1c-0.8-0.5-1.4-0.8-1.8-1.4
	c-0.1-0.8-0.1-1.6-0.1-2.4s0-1.7,0-2.4c0-6.3,0.5-12.9,1.4-19.8c0.9-6.9,2.4-14.3,4.6-22.4c0.2-0.8,0.5-1.9,0.8-3.2
	c0.3-1.3,0.6-2.7,0.8-4.2c-1.6,0.8-3.4,2.3-5.4,4.5c-2,2.3-4,5-6.1,8.1c-2.1,3.2-4.1,6.8-6.1,10.6c-2,3.9-3.9,7.9-5.4,11.8
	c-1.6,4-2.9,8.1-4,12C19.5,450.2,18.8,453.8,18.5,457.1z M61.2,445.2c0-0.5,0-1.1,0.1-1.9s0.3-1.8,0.5-3c0.2-1.2,0.6-2.8,0.8-4.6
	c0.4-1.8,0.8-3.9,1.4-6.5c0.1-0.6,0.4-1.5,0.8-2.7c0.4-1.2,0.9-2.5,1.6-3.9c0.7-1.4,1.4-2.7,2.3-4c0.9-1.3,2.1-2.3,3.4-2.9
	c0.9,0.2,2.3,0.8,3.8,1.7c1.6,0.9,2.9,2.3,4,3.9c-1.3,1.5-2.3,2.9-3.3,4.4c-0.8,1.5-1.7,3-2.3,4.6c-0.8,1.6-1.3,3.2-2,4.9
	c-0.7,1.7-1.2,3.5-2,5.4c-0.7,1.6-1.2,3.2-1.7,4.9c-0.5,1.7-0.8,3.1-0.8,4.3c0,1,0,1.7,0,2.2c0,0.4-0.2,0.7-0.5,0.7
	c-0.2,0-0.7-0.2-1.3-0.5c-0.7-0.3-1.4-0.8-2.1-1.3c-0.8-0.6-1.3-1.3-1.9-2.3C61.5,447.5,61.2,446.5,61.2,445.2z M77.3,408.6
	c0-0.4,0.1-0.8,0.3-1.5c-0.3-0.3-0.6-0.8-0.8-1.2c-0.2-0.6-0.3-1-0.3-1.5c0-0.5,0.1-1.2,0.2-2.1c0.1-0.8,0.3-1.8,0.6-2.8
	c0.2-1,0.5-2.1,0.8-3.2c0.4-1.1,0.7-2.1,1-3c0.7,0,1.5,0.2,2.5,0.6c0.9,0.4,2,0.8,3,1.4s2,1.2,2.8,2c0.8,0.8,1.5,1.4,2,2
	c-0.7,0.7-1.4,1.5-2.4,2.5s-2,2.3-2.9,3.5c-0.9,1.2-1.9,2.3-2.6,3.4c-0.8,1-1.3,1.9-1.5,2.3c-0.7-0.1-1.3-0.4-1.8-0.8
	C77.5,409.4,77.3,409,77.3,408.6z M94.7,409.9c1.5,0.5,2.8,1.4,4.1,3c1.3,1.6,2.3,3.3,2.9,5.1c-0.7,1.5-1.6,3.4-2.9,5.4
	c-1.3,2.2-2.6,4.3-3.9,6.6c-1.3,2.3-2.4,4.3-3.5,6.4c-1,2-1.7,3.7-1.8,5c0.9-0.9,1.9-2.1,3-3.4s2.2-2.5,3.2-3.9c1-1.2,2-2.4,2.9-3.5
	c0.9-1,1.6-1.8,2.2-2.3c1-1.1,2.3-2.4,3.9-3.9c1.5-1.5,3-2.9,4.6-4.2c1.6-1.3,3.2-2.4,4.9-3.4c1.6-0.9,3.1-1.4,4.5-1.4
	c1.5,0,2.7,0.5,3.7,1.5c0.9,0.9,1.8,2,2.3,3.1c0,0.1-0.2,0.3-0.7,0.5c-0.5,0.2-1,0.8-1.8,1.7c-0.8,1-1.7,2.4-2.6,4.2
	c-1,1.8-2,3.7-2.9,5.7c-0.9,2.1-1.7,4.1-2.3,6.3c-0.7,2.2-0.9,4.1-0.9,5.8c0,1.4,0.2,2.3,0.6,2.7c0.4,0.4,0.8,0.6,1.6,0.6
	c0.7,0,1.2-0.1,2-0.5c0.7-0.3,1.2-0.5,1.6-0.5c0.2,0.1,0.4,0.4,0.6,0.8c0.1,0.4,0.2,0.7,0.2,0.9c-0.5,0.4-1,0.8-1.6,1.2
	c-0.7,0.4-1.3,0.8-2,1.1c-0.7,0.4-1.3,0.7-2,0.8c-0.7,0.2-1.2,0.4-1.7,0.4c-1.6,0-3-0.3-4-0.8c-1-0.5-1.9-1.1-2.4-1.9
	c-0.6-0.8-1-1.7-1.2-2.8c-0.2-1.1-0.4-2.3-0.4-3.5c0-0.7,0.1-1.4,0.2-2.3s0.4-1.9,0.7-3c0.4-1.1,0.8-2.5,1.4-4.1
	c0.7-1.6,1.4-3.6,2.3-5.8c-0.1,0-0.8,0.4-2.3,1.2c-1.4,0.8-2.9,2-4.6,3.7c-2.6,2.5-5.1,5.1-7.1,7.5c-2.2,2.4-4.2,5.3-6.5,8.3
	c-1.2,1.8-2.3,3.2-3.3,4.4c-0.9,1.2-1.7,2-2.4,2.4c-1.2-0.7-2.1-1.6-2.6-2.8c-0.6-1.2-1-2.4-1.3-3.8c0-1,0.2-2.4,0.5-4
	c0.3-1.6,0.8-3.5,1.3-5.4c0.6-2,1.2-4.1,2-6.3c0.8-2.2,1.7-4.4,2.6-6.6c2.2-5,4.1-8.8,5.9-11.6C93.1,411.7,94.2,410.1,94.7,409.9z
	 M156.9,415.9c-0.2,3.5-0.8,6.5-1.9,9s-2.4,4.7-4.3,6.6c-1.9,1.9-4.2,3.6-6.9,5.1c-2.6,1.5-5.8,3-9.5,4.4c0,0.4,0,0.7,0,1
	c0,0.4,0,0.8,0,1.1c0,0.8,0.1,1.5,0.2,2.3c0.1,0.8,0.3,1.5,0.6,2.2s0.7,1.2,1.2,1.7c0.6,0.5,1.1,0.7,2,0.7c1.5,0,3-0.4,4.5-1
	c1.5-0.7,2.8-1.5,4.2-2.5c1.3-0.9,2.5-2.1,3.8-3.2c1.1-1.1,2.2-2.3,3.1-3.2c0.6,0.5,1,0.9,1.4,1.4c-1.5,2.2-4,5.5-8.4,8.5
	c-3.3,2.2-6.4,3.4-8.6,4c-1.3-0.1-5.8-0.6-9-4c-1.3-1.4-2-2.9-2.2-3.2c-0.8-1.7-1.1-3.5-1.1-5.4c0-2.3,0.3-4.7,0.9-7
	c0.7-2.3,1.5-4.7,2.7-6.9c1.1-2.3,2.5-4.3,4-6.3s3.2-3.7,5-5.2c1.8-1.5,3.6-2.6,5.5-3.5c1.9-0.8,3.8-1.2,5.6-1.2
	C152.3,411.4,154.6,413,156.9,415.9z M151.1,418.7c-1.5,0.2-3.1,0.8-4.7,1.9c-1.6,1-3.2,2.3-4.6,4s-2.7,3.7-3.9,5.9
	s-2.2,4.7-2.8,7.2c4.5-2.3,8.3-5.1,11.3-8.4C149.3,426.1,150.9,422.5,151.1,418.7z"/>
<linearGradient id="SVGID_2_" gradientUnits="userSpaceOnUse" x1="119.5057" y1="305.8625" x2="339.6465" y2="305.8625" gradientTransform="matrix(1 0 0 -1 0 798)">
	<stop  offset="0" style="stop-color:#D82740"/>
	<stop  offset="0.1137" style="stop-color:#D42740"/>
	<stop  offset="0.2169" style="stop-color:#C9273E"/>
	<stop  offset="0.3159" style="stop-color:#B7283C"/>
	<stop  offset="0.3202" style="stop-color:#B6283C"/>
	<stop  offset="0.3679" style="stop-color:#B0283B"/>
	<stop  offset="0.4337" style="stop-color:#9E2939"/>
	<stop  offset="0.51" style="stop-color:#812A36"/>
	<stop  offset="0.5934" style="stop-color:#582B32"/>
	<stop  offset="0.67" style="stop-color:#2D2D2D"/>
	<stop  offset="1" style="stop-color:#2D2D2D"/>
</linearGradient>
<path class="st5" d="M163,493.5c1.5,0,2.6,0.5,3.5,1.5c0.8,1,1.2,2.4,1.2,4.2c0,0.5,0,0.9-0.1,1.4c-0.1,0.5-0.2,0.9-0.3,1.2
	c-1.2-0.3-2.4-0.5-3.9-0.5c-0.4,2.4-1.2,5.1-2.7,7.8c-1.5,2.7-3.3,5.3-5.4,7.6s-4.4,4.4-6.9,6.2c-2.4,1.8-5,3-7.3,3.6
	c-7.5,0-13.1-1.9-16.5-5.6c-3.5-3.8-5.2-9.6-5.2-17.6c0-5.8,1-11.5,3.2-16.9c2.2-5.4,5-10.3,8.5-14.6c3.6-4.2,7.6-7.6,12.2-10.2
	c4.6-2.5,9.4-3.9,14.4-3.9c3.9,0,6.9,0.8,9.1,2.4c2.2,1.6,3.3,3.9,3.3,6.9c0,2-0.5,3.8-1.4,5.4s-2.4,3.6-4.6,5.4
	c-1.3-0.4-2.4-1.1-3.4-2.1s-1.6-2.2-1.8-3.4c1.9-1.4,3.3-2.7,4-3.9c0.8-1.2,1.2-2.6,1.2-4.2c0-2.6-1.6-3.9-4.6-3.9
	c-2.5,0-5.3,0.9-8.2,2.8c-2.9,1.9-5.8,4.6-8.7,8.2c-4.1,5-7.2,10.2-9.1,15.5c-1.9,5.4-2.9,11.4-2.9,17.9c0,2.4,0.3,4.7,0.8,6.8
	c0.5,2.1,1.2,3.9,2.1,5.4c0.8,1.5,1.9,2.7,3,3.7c1.1,0.9,2.4,1.4,3.8,1.5c1.8-0.4,3.6-1.3,5.4-2.7c1.8-1.4,3.5-3.1,5-5.1
	c1.5-2,2.7-4,3.8-6.3c1-2.3,1.7-4.3,1.9-6.4c-1.6,0.4-3.1,0.7-4.5,0.9s-2.8,0.5-4.1,0.5c-1.7,0-3.2-0.4-4.4-1.2
	c-1.3-0.8-2.2-2-2.5-3.5c1-0.6,2.5-1.1,4.4-1.8c2-0.7,4-1.2,6.2-1.8c2.2-0.6,4.3-0.9,6.5-1.3C159.9,493.6,161.6,493.5,163,493.5z
	 M201,477c0.6,0,1.2,0.1,2,0.3c0.8,0.2,1.4,0.5,2.1,0.8s1.1,0.7,1.6,0.9c0.5,0.4,0.7,0.7,0.7,0.9c-1.1,2.3-2.2,4.8-3.1,7.1
	c-0.9,2.4-1.8,4.7-2.4,6.9c-0.7,2.2-1.2,4.2-1.6,6.2c-0.4,1.9-0.6,3.6-0.6,5c0,1.6,0.2,2.9,0.5,3.9c0.4,1,0.9,1.8,1.7,2.3
	c-0.7,0.5-1.6,0.8-2.6,1.1c-1,0.3-2.1,0.5-2.9,0.5c-3,0-4.6-2.1-4.6-6.3c0-3.2,1-7.6,3.2-13.1c-1.1,2.5-2.4,5-3.9,7.3
	c-1.5,2.3-3,4.3-4.5,6c-1.5,1.8-3.1,3.2-4.6,4.2c-1.6,1.1-3,1.8-4.2,2c-2.1,0-3.8-0.9-5.1-2.8s-2-4.3-2-7.2c0-3.2,0.7-6.5,2.1-10
	c1.3-3.5,3.1-6.8,5.2-9.8c2.2-3,4.4-5.5,6.9-7.5c2.4-2,4.9-3,7.1-3c0.6,0.2,1.2,0.5,1.9,1c0.7,0.5,1.4,1.1,2.1,1.8
	c0.7,0.7,1.2,1.4,1.7,2.1c0.5,0.7,0.7,1.3,0.8,1.8c-2.3,0.4-4.6,1.4-6.9,3.3c-2.4,1.9-4.6,4.1-6.5,6.7c-2,2.6-3.6,5.4-4.8,8.4
	c-1.2,3-1.9,5.7-1.9,8.4c0,1,0.4,1.8,1.2,2.1c1.6-0.4,3.5-1.7,5.6-4.2c2.2-2.4,4.7-6.2,7.8-11.4c0.6-1,1.2-2.2,1.9-3.4
	c0.7-1.2,1.4-2.5,2.2-3.9c0.8-1.3,1.4-2.7,2.2-4.1C199.8,479.6,200.5,478.2,201,477z M260.5,485.2c-0.9,0-2,0.6-3.3,1.7
	c-1.3,1.1-2.7,2.5-4.2,4.2s-3,3.7-4.7,5.7c-1.7,2.1-3.2,4.1-4.7,6.2c-1.5,2.1-2.9,4-4.2,5.8c-1.3,1.8-2.4,3.3-3.3,4.3
	c-1.2-0.5-2.3-1.2-3.2-2.3c-0.9-0.9-1.6-2.3-2-3.7c0.3-1.8,0.7-3.6,1.2-5.4c0.5-1.9,1.1-3.9,2-5.8c0.8-2.1,1.8-4.1,3-6.4
	c1.2-2.3,2.7-4.6,4.4-7c-0.8,0-2,0.6-3.5,1.7s-3,2.6-4.7,4.5s-3.5,3.9-5.3,6.2c-1.8,2.3-3.5,4.5-5.1,6.8c-2.1,2.9-3.9,5.5-5.2,7.7
	c-1.4,2.2-2.3,3.5-3,3.9c-1.5-1-2.4-2.3-3-3.5c-0.6-1.2-1-2.6-1.2-4.1c0.1-1.3,0.3-3,0.7-5.1c0.4-2.1,0.8-4.1,1.6-6.3
	c1.3-4.1,3-8.2,5.1-12.2c2.1-4,4-7.8,5.9-11.2c1.6,0.4,3,0.8,4.2,1.6c1.2,0.8,2.6,1.8,4,3.2c-0.6,1.8-1.4,3.6-2.6,5.5
	c-1.2,2-2.4,3.9-3.8,6.1c-1.3,2.2-2.4,4.3-3.6,6.6c-1,2.3-1.8,4.5-2.2,6.9c1.6-2.3,3.5-4.9,5.6-7.8c2.2-2.9,4.4-5.7,6.7-8.3
	c2.3-2.6,4.5-4.8,6.8-6.6c2.3-1.8,4.3-2.7,6.1-2.7c0.7,0,1.4,0.1,2.2,0.4c0.8,0.2,1.5,0.5,2.2,0.8c0.7,0.4,1.2,0.7,1.7,0.9
	s0.7,0.6,0.8,0.8c-0.3,1.1-0.9,2.6-2,4.6c-1,2-2.2,3.9-3.4,6.1c-1.2,2.2-2.3,4.2-3.3,6.2c-1,2-1.6,3.6-1.8,4.8
	c2.7-3.8,5.4-7.2,7.8-10.2c2.4-3.1,4.7-5.7,6.9-7.9c2.2-2.2,4.1-3.9,5.9-5.1c1.8-1.2,3.6-1.8,5.2-1.8c1.1,0,2.2,0.3,3.2,0.8
	c0.9,0.6,1.7,1.4,2.1,2.5c-0.5,1.7-1.3,3.8-2.5,6.1c-1.1,2.3-2.3,4.9-3.5,7.5c-1.1,2.6-2.3,5.2-3.2,7.7c-0.9,2.5-1.4,4.8-1.4,6.9
	c0,1.2,0.2,2,0.5,2.3c0.4,0.4,0.8,0.6,1.4,0.6c0.7,0,1.3-0.1,1.9-0.4s1-0.4,1.3-0.4c0.4,0.2,0.6,0.5,0.6,0.8
	c0.1,0.4,0.1,0.7,0.1,0.9c-1.1,0.9-2.3,1.7-3.5,2.3c-1.2,0.6-2.5,0.8-3.9,0.8c-1.3,0-2.4-0.2-3.4-0.7c-0.8-0.5-1.6-1-2.2-1.9
	c-0.6-0.8-0.9-1.7-1.2-2.7c-0.2-1-0.4-2.1-0.4-3.3c0-1.9,0.3-3.9,0.8-5.7c0.5-1.9,1.1-3.7,1.8-5.4c0.7-1.7,1.4-3.3,2.3-4.8
	C259.3,487.7,259.9,486.4,260.5,485.2z M306.7,476.2c-0.2,3.5-0.8,6.5-1.9,9s-2.4,4.7-4.3,6.6c-1.9,1.9-4.2,3.6-6.9,5.1
	c-2.6,1.5-5.8,3-9.5,4.4c0,0.4,0,0.7,0,1c0,0.4,0,0.8,0,1.1c0,0.8,0.1,1.5,0.2,2.3c0.1,0.8,0.3,1.5,0.6,2.2c0.3,0.7,0.7,1.2,1.2,1.7
	c0.6,0.5,1.1,0.7,2,0.7c1.5,0,3-0.4,4.5-1c1.5-0.7,2.8-1.5,4.2-2.5c1.3-0.9,2.5-2.1,3.8-3.2c1.1-1.1,2.2-2.3,3.1-3.2
	c0.6,0.5,1,0.9,1.4,1.4c-2.5,3.4-5.4,6.2-8.4,8.5c-3,2.3-5.9,3.7-8.5,4.2c-3.9-0.5-6.9-1.9-9.1-4.2s-3.3-5.3-3.3-8.6
	c0-2.3,0.3-4.7,0.9-7c0.7-2.3,1.5-4.7,2.7-6.9c1.1-2.3,2.5-4.3,4-6.3c1.5-2,3.2-3.7,5-5.2c1.8-1.5,3.6-2.6,5.4-3.5
	c1.9-0.8,3.8-1.2,5.6-1.2C302,471.7,304.4,473.3,306.7,476.2z M300.7,478.9c-1.5,0.2-3.1,0.8-4.7,1.9c-1.6,1-3.2,2.3-4.6,4
	s-2.7,3.7-3.9,5.9c-1.2,2.3-2.2,4.7-2.8,7.2c4.5-2.3,8.3-5.1,11.3-8.4C298.9,486.4,300.6,482.8,300.7,478.9z M339.6,477.4
	c-0.1,1-0.3,2.2-0.6,3.4c-0.3,1.1-0.7,2.2-1.1,3.1c-0.5,0.9-0.9,1.7-1.4,2.3c-0.5,0.7-1,0.9-1.4,0.9c-0.7-0.1-1-0.5-1.1-1.2
	c0-0.2,0.1-0.5,0.2-0.8c0.1-0.4,0.3-0.8,0.5-1.2c0.2-0.5,0.3-0.9,0.5-1.3c0.1-0.5,0.2-0.8,0.2-1.2c0-0.8-0.2-1.4-0.6-2
	c-0.4-0.6-0.8-0.8-1.5-0.8c-2.3,0-3.9,1.4-5.2,4.2c-1.2,2.8-1.8,6.9-1.8,12.4c0,0.6,0,0.9,0.1,1c1.2,0,2.3,0,3.2,0
	c0.9,0,1.9,0,2.7,0c0.1,0.1,0.1,0.4,0.1,0.7c0,0.5-0.1,0.8-0.4,1.1c-1.3,0.3-2.3,0.6-3.1,0.8c-0.8,0.2-1.3,0.4-1.7,0.6
	c-0.4,0.2-0.7,0.4-0.8,0.6c-0.1,0.2-0.1,0.5-0.1,0.8c0,0.5,0,0.9,0,1.3c0,0.5,0,1,0,1.7c0,4.7-1.3,8.5-3.9,11.4
	c-2.5,2.9-6.1,4.5-10.7,5c-0.8-0.1-1.6-0.3-2.4-0.7s-1.7-0.9-2.4-1.5c-0.8-0.7-1.4-1.3-2-2.1c-0.6-0.8-0.9-1.5-1.2-2.3
	c0-2.2,0.5-4.2,1.3-6.2c0.9-2,2.2-3.7,3.7-5.2c1.6-1.5,3.4-2.7,5.5-3.7c2.2-0.9,4.4-1.4,6.9-1.4c0-1.4-0.2-2.8-0.5-4.1
	s-0.6-2.6-0.8-3.9c-0.3-1.3-0.6-2.5-0.8-3.8s-0.5-2.4-0.5-3.6c0-1.5,0.3-3,0.9-4.5c0.7-1.5,1.4-2.9,2.4-4.1c1-1.3,2.2-2.3,3.6-3.3
	c1.3-0.9,2.7-1.5,4.2-1.9c0.7,0.2,1.4,0.7,2.5,1.5c1,0.8,2.1,1.7,3.1,2.7c1,1,1.9,2.1,2.7,3.1C339.1,475.8,339.6,476.7,339.6,477.4z
	 M311.7,515.9c1.3-0.6,2.6-1.4,3.9-2.4c1.2-1,2.3-2.3,3.2-3.7c0.9-1.3,1.6-2.8,2.2-4.3c0.6-1.5,0.8-3,0.8-4.5
	c-1.1,0.2-2.3,0.7-3.8,1.6c-1.3,0.8-2.6,1.9-3.9,3.1s-2.2,2.4-2.9,3.8c-0.8,1.3-1.2,2.4-1.2,3.4
	C310.1,514.1,310.5,515.1,311.7,515.9z"/>
</svg>
