<?xml version="1.0" encoding="utf-8"?>
<!-- Generator: Adobe Illustrator 19.0.0, SVG Export Plug-In . SVG Version: 6.00 Build 0)  -->
<svg version="1.1"
	 id="svg3680" xmlns:cc="http://creativecommons.org/ns#" xmlns:svg="http://www.w3.org/2000/svg" xmlns:dc="http://purl.org/dc/elements/1.1/" xmlns:sodipodi="http://sodipodi.sourceforge.net/DTD/sodipodi-0.dtd" xmlns:inkscape="http://www.inkscape.org/namespaces/inkscape" xmlns:rdf="http://www.w3.org/1999/02/22-rdf-syntax-ns#" inkscape:version="0.92.1 r15371" sodipodi:docname="LOGO MINEO GAMES 2.svg"
	 xmlns="http://www.w3.org/2000/svg" xmlns:xlink="http://www.w3.org/1999/xlink" x="0px" y="0px" viewBox="-121 182 470 430"
	 style="enable-background:new -121 182 470 430;" xml:space="preserve">
<style type="text/css">
	.st0{fill:none;stroke:#2D2D2D;stroke-width:1.5;stroke-miterlimit:10;}
	.st1{fill:#2D2D2D;}
	.st2{fill:#232323;}
	.st3{fill:url(#SVGID_1_);}
	.st4{fill:url(#SVGID_2_);}
</style>
<link  href="https://fonts.googleapis.com/css?family=Kaushan+Script" rel="stylesheet"></link>
<sodipodi:namedview  guidetolerance="10" gridtolerance="10" showgrid="false" inkscape:cy="327.34327" id="namedview3682" pagecolor="#ffffff" inkscape:cx="304.99279" bordercolor="#666666" borderopacity="1" inkscape:zoom="1.9044743" objecttolerance="10" inkscape:window-maximized="1" inkscape:pageshadow="2" inkscape:window-y="-9" inkscape:window-x="-9" inkscape:pageopacity="0" inkscape:current-layer="svg3680" inkscape:window-height="1001" inkscape:window-width="1920">
	</sodipodi:namedview>
<path d="M148.3,447.1"/>
<path d="M139.5,445.9"/>
<path class="st0" d="M147.5,445.4c2.5-6.1,3-11.4,3-14.8c0-2.5,0-5.1-0.9-8.4c-0.4-1.4-2.2-7.3-7.9-12.2c-4-3.5-8-4.8-9-5.1
	c-4.4-1.4-6.4-0.5-12.4-1c-2.6-0.2-8.8-0.7-12.9-2.5c-8.4-3.8-11.3-15-12.3-20.9"/>
<path d="M139.7,451"/>
<path d="M141.3,446.6"/>
<path d="M140.9,445.5"/>
<path d="M141.8,443.6"/>
<path d="M64.9,305.3"/>
<g>
	<g>
		<path class="st1" d="M58.8,318.1c1.2,0,2.2-0.8,2.2-1.7c0,0,0,0,0-1.3c0-7,0-12.8,0-16.9c0-1.3,0-1.3,0-1.3c0-1.4-1.1-2.6-2.3-2.6
			s-2.2,1.2-2.2,2.8c0,0,0,11.1,0.1,18.3c0,0.9,0,0.9,0,0.9C56.6,317.3,57.6,318.1,58.8,318.1z"/>
		<path class="st1" d="M56.3,319.5c0,0.2,0,0.3,0,0.3s2.3,0,3.2,0s1.6,0,1.6,0s0-0.1,0-0.4h-4.8C56.3,319.5,56.3,319.5,56.3,319.5z"
			/>
		<path class="st1" d="M166.5,318.5c8,0,13-0.1,13-1c0-1-5-1-13-1s-13-0.1-13,1S158.5,318.5,166.5,318.5z"/>
		<path class="st1" d="M166.5,309.9c8,0,13-0.1,13-1c0-1-5-1-13-1s-13-0.1-13,1S158.5,309.9,166.5,309.9z"/>
		<path class="st1" d="M150.8,262c0-0.8,0-1.6,0-2.4c0-3.5-0.4-18.5-0.5-20c0-0.5-0.1-1.3-0.7-1.5c-0.5-0.2-1,0.1-1.4,0.3
			c-0.5,0.3-0.9,0.6-1.3,0.9c-1.9,1.3-19.7,16.8-23.6,20.1c-3.9,3.3-3.9,3.3-3.9,3.3c-2.1,1.8-7.1,3.3-11.1,3.3s-10.4,0-14.4,0
			s-10.4,0-14.4,0s-10.4,0-14.4,0s-9.3-1.8-11.8-3.9S28,240.8,26.6,239.7c-1-0.8-4.1-3.9-4.8-3.7c-0.7,0.3-0.7,1.6-0.8,2.9
			c-0.2,4.6-0.2,35.9-0.1,42.7c0,0.1,0,0.2,0,0.3c0,0,0,0,0,0.1c0,1.6,0,4.3,0.1,7.5c0.1,1,0.1,2.4,0.2,4c0.1,0.7,0.4,1.4,1.1,1.7
			c0.6,0.3,1.1,0,1.5-0.1c0.7-0.3,1-0.8,1.8-1.4c0.6-0.5,1.2-1,1.8-1.5c2.6-2.1,5.2-4.2,7.8-6.3c2.6-2.1,5.2-4.2,7.9-6.2
			c0.6-0.5,4.1-3.3,7.6-5.8s4.6-3.1,4.6-3.1c1.4-0.8,3-0.2,3.5,1.3c0,0,1.4,4,4.8,14.1s8,23.8,13,38.8c5,14.9,11.1,33.3,13.6,40.8
			c2.2,6.7,2.3,6.4,4.5,16.3l9.3-3.4c15.8-5.1,31.4-14.9,40-29.5c2.3-3.9,3.9-7.9,4.9-12c1.1-4.2,1.6-8.5,1.7-12.9
			c0.2-9.1,0.3-18,0.3-27.1s-0.1-18.1-0.1-27.1C150.8,267.4,150.8,264.7,150.8,262z M113.1,294.2c1.2,0,2.3,1.2,2.3,2.6
			c0,0,0,0,0,1.3c0,4.1,0,9.9,0,16.9c0,1.3,0,1.3,0,1.3c0,0.9-1,1.7-2.2,1.7s-2.2-0.8-2.2-1.8c0,0,0,0,0-0.9
			c0-7.1-0.1-18.3-0.1-18.3C110.9,295.4,111.9,294.2,113.1,294.2z M115.6,319.7c0,0-0.7,0-1.6,0s-3.2,0-3.2,0s0-0.1,0-0.3
			c0,0,0,0,0-0.1h4.8C115.6,319.6,115.6,319.7,115.6,319.7z M149.5,287.1c-0.1,3.7-3.8,3.7-8.3,0c-8-6.6-10-8.6-16.3-13.5
			c-0.3-0.2-0.8-0.6-1-1.2c-0.9-2.6,3.3-6.1,7.1-9.6c10.2-9.4,16.5-17.4,17.8-16.4c0.1,0.1,0.1,0.3,0.3,0.7
			C149.6,248.4,149.6,283.4,149.5,287.1z"/>
		<path class="st1" d="M166.7,325c-8,0-13-0.1-13,1c0,1,5,1,13,1s13-0.1,13-1C179.7,325,174.7,325,166.7,325z"/>
	</g>
	<path class="st1" d="M147.4,444.3c-1.3-0.5-2.4-0.8-2.7-0.9c-3.8-1.1-7.3-1.5-8.8-1.4c-7.9,0.2-13.9,14-14.5,15.5
		c-2,4.6-4.7,10.8-2.1,17.3c1.7,4.3,5.1,6.8,7,8.2c5.3,3.9,10.8,4.6,13.4,4.7c3,0.1,7.4,0.3,11.3-2.5c2.3-1.7,3.7-4,4.2-4.8
		c1-1.8,1.5-3.4,1.9-4.7c0.5-1.8,0.7-3.2,1-5.1c0.1-0.8,0.2-2.2,0.5-4.8c0.2-2.1,0.3-3.2,0.3-4.2c0.1-2.3,0.2-3.4,0.1-4.6
		c-0.1-1.9-0.2-3.9-1.2-5.8C155.9,447.6,152.1,446.1,147.4,444.3z M148.8,451.9c0.2-1,0.1-1.8,0.1-2.6c-0.1-0.9-0.2-1.6-0.3-2.2
		c1.5,0.6,2.7,1.3,3.6,1.8c1.4,1,2.6,1.7,3.5,3.2c0.7,1.1,0.8,2.1,1,3.5c0.3,1.8,0.2,3.1,0,5.3c-0.1,1.1-0.2,2.7-0.5,4.5
		c-2.4-1.9-4.2-3.2-5.1-3.7c-0.6-0.4-1.4-0.8-1.4-0.8c-0.3-0.2-0.7-0.4-1.1-0.6c-0.5-0.2-1-0.5-1.5-0.8c-1.1-0.5-2-0.9-2.7-1.2
		c0.2-0.3,0.5-0.6,0.9-1c0.6-0.6,0.9-0.7,1.3-1.1c0.8-0.7,1.2-1.4,1.4-1.9C148.5,453.3,148.7,452.4,148.8,451.9z M146.8,452.9
		c-0.7,1.9-2.6,3.8-3.6,3.4s-1.2-2.9-0.4-4.7c0.8-1.7,2.7-3.3,3.7-2.8C147.4,449.2,147.3,451.4,146.8,452.9z M133.2,455.2
		c-0.7-0.1-0.9-0.1-1.2-0.1c-0.2,0-0.3,0-0.4,0c-0.2,0-0.8,0-1.9,0c0.4-0.8,0.9-2,1.7-3.3c0.8-1.4,1.4-2.3,2.3-3.3
		c0.9-0.9,2.1-2.2,4.1-2.8c1.9-0.6,3.7-0.3,5.1,0c1.2,0.2,2.2,0.6,2.8,0.8c-0.6,0.3-1.3,0.7-2,1.3c-0.3,0.3-1.1,1-1.7,2.1
		c-0.3,0.4-0.6,1-0.8,1.9c-0.1,0.4-0.3,1.1-0.2,2.1c0.1,0.8,0.3,1.1,0.2,1.9c-0.1,0.4-0.2,0.8-0.3,1c-1.1-0.3-2-0.6-2.7-0.8
		c-0.7-0.2-1.4-0.3-2.3-0.5C134.9,455.4,134.1,455.3,133.2,455.2z M152.8,479.7c-0.6,0.8-2.2,2.5-4.7,3.6c-3.4,1.4-6.5,0.7-9.5,0.1
		c-2.1-0.5-5.4-1.2-8.6-3.8c-1.2-1-2.9-2.4-4-4.9c-1.8-4-0.8-7.7-0.4-9.2c0.6-2.2,1.3-4.8,3.6-6.2c1.8-1,3.6-0.9,6.4-0.6
		c3.3,0.3,5.7,1.2,8.2,2.3c3.7,1.5,6,3,7,3.7c2.2,1.5,3.3,2.3,4,3.8c1.1,2.2,0.7,4.3,0.5,5.8C154.6,477.2,153.1,479.3,152.8,479.7z"
		/>
	<path class="st2" d="M125.5,453.6C125.4,453.7,125.5,453.6,125.5,453.6L125.5,453.6z"/>
</g>
<linearGradient id="SVGID_1_" gradientUnits="userSpaceOnUse" x1="-71.85" y1="341.1453" x2="117.45" y2="341.1453" gradientTransform="matrix(1 0 0 -1 0 794)">
	<stop  offset="0" style="stop-color:#008CB7"/>
	<stop  offset="0.219" style="stop-color:#018AB5"/>
	<stop  offset="0.3251" style="stop-color:#0385AD"/>
	<stop  offset="0.4068" style="stop-color:#077CA0"/>
	<stop  offset="0.4763" style="stop-color:#0D708E"/>
	<stop  offset="0.582" style="stop-color:#155F76"/>
	<stop  offset="0.6725" style="stop-color:#1F4B58"/>
	<stop  offset="0.7882" style="stop-color:#2D2D2D"/>
	<stop  offset="0.861" style="stop-color:#2A3335"/>
	<stop  offset="1" style="stop-color:#2D2D2D"/>
</linearGradient>
<path class="st3" d="M-29.9,489.4c-0.1,0.1-0.2,0.1-0.4,0.1c-0.1,0-0.4,0-0.7,0c-0.8,0-1.8-0.1-2.9-0.4c-1.1-0.3-2.2-0.6-3.2-1
	c-1.1-0.4-2-0.8-2.7-1.3c-0.8-0.5-1.2-0.9-1.4-1.3c-0.1-0.8-0.1-1.7-0.1-2.6s0-1.8,0-2.6c0-6.7,0.5-13.7,1.5-21.1
	c1-7.3,2.6-15.2,4.9-23.8c0.2-0.8,0.5-1.9,0.8-3.2c0.3-1.3,0.6-2.7,0.9-4.2c-1.4,1.1-3.1,3-5.1,5.4c-2,2.5-4.1,5.4-6.3,8.8
	s-4.4,7.1-6.6,11.2c-2.2,4-4.2,8.2-6,12.3c-1.8,4.2-3.3,8.3-4.6,12.4c-1.3,4.1-2.1,7.9-2.4,11.3c-2.9-0.8-4.9-1.7-6-2.5
	s-1.7-1.9-1.7-3.1c0-1.1,0.3-2.6,1-4.6s1.6-4.3,2.8-7c1.2-2.7,2.7-5.7,4.4-9c1.7-3.3,3.7-6.9,5.8-10.8c2.4-4.4,4.8-8.5,7.1-12.3
	c2.3-3.8,4.6-7.3,6.8-10.4s4.4-5.8,6.5-8.1c2.1-2.3,4.2-4,6.3-5.2c0.8,0,2,0.2,3.4,0.6s2.8,0.9,4.1,1.5c1.4,0.6,2.5,1.2,3.6,1.8
	c1,0.6,1.6,1.2,1.8,1.6c-0.8,1.7-1.8,4.2-3,7.6c-1.1,3.4-2.3,7.2-3.5,11.4c-1.2,4.3-2.3,8.8-3.3,13.5c-1.1,4.8-1.9,9.3-2.5,13.7
	c1.4-3.3,3-6.7,4.8-10.3c1.8-3.6,3.8-7.1,5.8-10.6s4.1-6.9,6.3-10.2c2.1-3.3,4.2-6.3,6.3-9c2-2.7,3.9-5.1,5.7-7.2
	c1.8-2,3.3-3.5,4.7-4.5c0.8,0,2,0.2,3.4,0.6s2.8,0.9,4.1,1.5c1.4,0.6,2.5,1.2,3.6,1.8c1,0.6,1.6,1.2,1.8,1.6
	c-1.9,3.4-3.6,7.6-5,12.5s-2.7,10.1-3.6,15.5c-1,5.4-1.7,10.8-2.3,16.1c-0.5,5.3-0.8,10.1-0.8,14.3c0,1.4,0,2.8,0,4.3
	s0.1,3.1,0.2,4.7c-0.8,0-1.8-0.1-3-0.3c-1.2-0.2-2.3-0.5-3.4-0.9s-2.1-0.8-3-1.2c-0.9-0.5-1.5-0.9-1.9-1.5c-0.1-0.8-0.1-1.7-0.1-2.6
	s0-1.8,0-2.6c0-6.7,0.5-13.7,1.5-21.1c1-7.3,2.6-15.2,4.9-23.8c0.2-0.8,0.5-2,0.8-3.4s0.6-2.9,0.9-4.5c-1.7,0.8-3.6,2.4-5.7,4.8
	s-4.3,5.3-6.5,8.6c-2.2,3.4-4.4,7.2-6.5,11.3c-2.1,4.1-4.1,8.4-5.8,12.6c-1.7,4.3-3.1,8.6-4.3,12.8C-28.9,482-29.6,485.9-29.9,489.4
	z M15.5,476.7c0-0.5,0-1.2,0.1-2c0.1-0.8,0.3-1.9,0.5-3.2c0.2-1.3,0.6-3,0.9-4.9c0.4-1.9,0.9-4.2,1.5-6.9c0.1-0.6,0.4-1.6,0.8-2.9
	c0.4-1.3,1-2.7,1.7-4.2s1.5-2.9,2.5-4.3s2.2-2.4,3.6-3.1c1,0.2,2.4,0.9,4,1.8c1.7,1,3.1,2.4,4.3,4.1c-1.4,1.6-2.5,3.1-3.5,4.7
	c-0.9,1.6-1.8,3.2-2.5,4.9c-0.8,1.7-1.4,3.4-2.1,5.2s-1.3,3.7-2.1,5.7c-0.7,1.7-1.3,3.4-1.8,5.2c-0.5,1.8-0.8,3.3-0.9,4.6
	c0,1.1,0,1.8,0,2.3c0,0.4-0.2,0.7-0.5,0.7c-0.2,0-0.7-0.2-1.4-0.5c-0.7-0.3-1.5-0.8-2.2-1.4c-0.8-0.6-1.4-1.4-2-2.4
	C15.8,479.2,15.5,478.1,15.5,476.7z M32.7,437.7c0-0.4,0.1-0.9,0.3-1.6c-0.3-0.3-0.6-0.8-0.8-1.3c-0.2-0.6-0.3-1.1-0.3-1.6
	s0.1-1.3,0.2-2.2c0.1-0.9,0.3-1.9,0.6-3c0.2-1.1,0.5-2.2,0.9-3.4c0.4-1.2,0.7-2.2,1.1-3.2c0.7,0,1.6,0.2,2.7,0.6
	c1,0.4,2.1,0.9,3.2,1.5c1.1,0.6,2.1,1.3,3,2.1c0.9,0.8,1.6,1.5,2.1,2.1c-0.7,0.7-1.5,1.6-2.6,2.7c-1.1,1.1-2.1,2.4-3.1,3.7
	c-1,1.3-2,2.5-2.8,3.6s-1.4,2-1.6,2.4c-0.7-0.1-1.4-0.4-1.9-0.9C32.9,438.6,32.7,438.2,32.7,437.7z M51.2,439.1
	c1.6,0.5,3,1.5,4.4,3.2s2.4,3.5,3.1,5.4c-0.7,1.6-1.7,3.6-3.1,5.8c-1.4,2.3-2.8,4.6-4.1,7c-1.4,2.4-2.6,4.6-3.7,6.8
	c-1.1,2.1-1.8,3.9-1.9,5.3c1-1,2-2.2,3.2-3.6c1.2-1.4,2.3-2.7,3.4-4.1c1.1-1.3,2.1-2.6,3.1-3.7s1.7-1.9,2.3-2.5
	c1.1-1.2,2.5-2.6,4.1-4.2s3.2-3.1,4.9-4.5c1.7-1.4,3.4-2.6,5.2-3.6c1.7-1,3.3-1.5,4.8-1.5c1.6,0,2.9,0.5,3.9,1.6
	c1,1,1.9,2.1,2.5,3.3c0,0.1-0.2,0.3-0.7,0.5s-1.1,0.8-1.9,1.8c-0.8,1.1-1.8,2.6-2.8,4.5c-1.1,1.9-2.1,3.9-3.1,6.1s-1.8,4.4-2.5,6.7
	c-0.7,2.3-1,4.4-1,6.2c0,1.5,0.2,2.5,0.6,2.9c0.4,0.4,0.9,0.6,1.7,0.6c0.7,0,1.3-0.1,2.1-0.5c0.7-0.3,1.3-0.5,1.7-0.5
	c0.2,0.1,0.4,0.4,0.6,0.8c0.1,0.4,0.2,0.7,0.2,1c-0.5,0.4-1.1,0.8-1.7,1.3c-0.7,0.4-1.4,0.8-2.1,1.2c-0.7,0.4-1.4,0.7-2.1,0.9
	c-0.7,0.2-1.3,0.4-1.8,0.4c-1.7,0-3.2-0.3-4.3-0.8s-2-1.2-2.6-2c-0.6-0.8-1.1-1.8-1.3-3s-0.4-2.4-0.4-3.7c0-0.7,0.1-1.5,0.2-2.4
	c0.1-0.9,0.4-2,0.7-3.2c0.4-1.2,0.9-2.7,1.5-4.4c0.7-1.7,1.5-3.8,2.5-6.2c-0.1,0-0.9,0.4-2.4,1.3c-1.5,0.8-3.1,2.1-4.9,3.9
	c-2.8,2.7-5.4,5.4-7.6,8c-2.3,2.6-4.5,5.6-6.9,8.8c-1.3,1.9-2.5,3.4-3.5,4.7c-1,1.3-1.8,2.1-2.6,2.6c-1.3-0.7-2.2-1.7-2.8-3
	c-0.6-1.3-1.1-2.6-1.4-4c0-1.1,0.2-2.6,0.5-4.3c0.3-1.7,0.8-3.7,1.4-5.8c0.6-2.1,1.3-4.4,2.1-6.7c0.8-2.3,1.8-4.7,2.8-7
	c2.3-5.3,4.4-9.4,6.3-12.4C49.5,441,50.7,439.4,51.2,439.1z M117.4,445.5c-0.2,3.7-0.9,6.9-2,9.6s-2.6,5-4.6,7s-4.5,3.8-7.3,5.4
	s-6.2,3.2-10.1,4.7c0,0.4,0,0.7,0,1.1s0,0.8,0,1.2c0,0.8,0.1,1.6,0.2,2.4s0.3,1.6,0.6,2.3c0.3,0.7,0.7,1.3,1.3,1.8s1.2,0.7,2.1,0.7
	c1.6,0,3.2-0.4,4.8-1.1c1.6-0.7,3-1.6,4.5-2.7c1.4-1,2.7-2.2,4-3.4c1.2-1.2,2.3-2.4,3.3-3.4c0.6,0.5,1.1,1,1.5,1.5
	c-1.6,2.3-4.3,5.9-8.9,9c-3.5,2.3-6.8,3.6-9.2,4.3c-1.4-0.1-6.2-0.6-9.6-4.3c-1.4-1.5-2.1-3.1-2.3-3.4c-0.8-1.8-1.2-3.7-1.2-5.8
	c0-2.5,0.3-5,1-7.5s1.6-5,2.9-7.4c1.2-2.4,2.7-4.6,4.3-6.7c1.6-2.1,3.4-3.9,5.3-5.5s3.8-2.8,5.9-3.7c2-0.9,4-1.3,6-1.3
	C112.5,440.7,115,442.4,117.4,445.5z M111.2,448.5c-1.6,0.2-3.3,0.9-5,2s-3.4,2.5-4.9,4.3s-2.9,3.9-4.2,6.3c-1.3,2.4-2.3,5-3,7.7
	c4.8-2.4,8.8-5.4,12-8.9S111,452.6,111.2,448.5z"/>
<linearGradient id="SVGID_2_" gradientUnits="userSpaceOnUse" x1="76.55" y1="273.5454" x2="310.85" y2="273.5454" gradientTransform="matrix(1 0 0 -1 0 794)">
	<stop  offset="0" style="stop-color:#D82740"/>
	<stop  offset="0.1137" style="stop-color:#D42740"/>
	<stop  offset="0.2169" style="stop-color:#C9273E"/>
	<stop  offset="0.3159" style="stop-color:#B7283C"/>
	<stop  offset="0.3202" style="stop-color:#B6283C"/>
	<stop  offset="0.3679" style="stop-color:#B0283B"/>
	<stop  offset="0.4337" style="stop-color:#9E2939"/>
	<stop  offset="0.51" style="stop-color:#812A36"/>
	<stop  offset="0.5934" style="stop-color:#582B32"/>
	<stop  offset="0.67" style="stop-color:#2D2D2D"/>
	<stop  offset="1" style="stop-color:#2D2D2D"/>
</linearGradient>
<path class="st4" d="M122.8,521.9c1.6,0,2.8,0.5,3.7,1.6c0.9,1.1,1.3,2.6,1.3,4.5c0,0.5,0,1-0.1,1.5s-0.2,1-0.3,1.3
	c-1.3-0.3-2.6-0.5-4.1-0.5c-0.4,2.6-1.3,5.4-2.9,8.3c-1.6,2.9-3.5,5.6-5.7,8.1s-4.7,4.7-7.3,6.6c-2.6,1.9-5.3,3.2-7.8,3.8
	c-8,0-13.9-2-17.6-6c-3.7-4-5.5-10.2-5.5-18.7c0-6.2,1.1-12.2,3.4-18c2.3-5.8,5.3-11,9.1-15.5c3.8-4.5,8.1-8.1,13-10.9
	c4.9-2.7,10-4.1,15.3-4.1c4.1,0,7.4,0.9,9.7,2.6s3.5,4.2,3.5,7.4c0,2.1-0.5,4-1.5,5.8s-2.6,3.8-4.9,5.8c-1.4-0.4-2.6-1.2-3.6-2.2
	s-1.7-2.3-1.9-3.6c2-1.5,3.5-2.9,4.3-4.1c0.8-1.3,1.3-2.8,1.3-4.5c0-2.8-1.7-4.1-4.9-4.1c-2.7,0-5.6,1-8.7,3s-6.2,4.9-9.3,8.7
	c-4.4,5.3-7.7,10.9-9.7,16.5c-2,5.7-3.1,12.1-3.1,19.1c0,2.6,0.3,5,0.8,7.2s1.3,4.1,2.2,5.7c0.9,1.6,2,2.9,3.2,3.9s2.6,1.5,4,1.6
	c1.9-0.4,3.8-1.4,5.8-2.9c1.9-1.5,3.7-3.3,5.3-5.4c1.6-2.1,2.9-4.3,4-6.7s1.8-4.6,2-6.8c-1.7,0.4-3.3,0.7-4.8,1s-3,0.5-4.4,0.5
	c-1.8,0-3.4-0.4-4.7-1.3c-1.4-0.9-2.3-2.1-2.7-3.7c1.1-0.6,2.7-1.2,4.7-1.9c2.1-0.7,4.3-1.3,6.6-1.9c2.3-0.6,4.6-1,6.9-1.4
	C119.5,522.1,121.3,521.9,122.8,521.9z M163.3,504.4c0.6,0,1.3,0.1,2.1,0.3c0.8,0.2,1.5,0.5,2.2,0.8s1.2,0.7,1.7,1
	c0.5,0.4,0.7,0.7,0.7,1c-1.2,2.5-2.3,5.1-3.3,7.6c-1,2.6-1.9,5-2.6,7.3c-0.7,2.3-1.3,4.5-1.7,6.6c-0.4,2-0.6,3.8-0.6,5.3
	c0,1.7,0.2,3.1,0.5,4.2c0.4,1.1,1,1.9,1.8,2.4c-0.7,0.5-1.7,0.9-2.8,1.2s-2.2,0.5-3.1,0.5c-3.2,0-4.9-2.2-4.9-6.7
	c0-3.4,1.1-8.1,3.4-14c-1.2,2.7-2.6,5.3-4.1,7.8c-1.6,2.4-3.2,4.6-4.8,6.4c-1.6,1.9-3.3,3.4-4.9,4.5c-1.7,1.2-3.2,1.9-4.5,2.1
	c-2.2,0-4-1-5.4-3c-1.4-2-2.1-4.6-2.1-7.7c0-3.4,0.7-6.9,2.2-10.7c1.4-3.7,3.3-7.2,5.5-10.4c2.3-3.2,4.7-5.9,7.3-8s5.2-3.2,7.6-3.2
	c0.6,0.2,1.3,0.5,2,1.1c0.7,0.5,1.5,1.2,2.2,1.9c0.7,0.7,1.3,1.5,1.8,2.2s0.7,1.4,0.8,1.9c-2.4,0.4-4.9,1.5-7.4,3.5
	c-2.6,2-4.9,4.4-6.9,7.1c-2.1,2.8-3.8,5.8-5.1,8.9c-1.3,3.2-2,6.1-2,8.9c0,1.1,0.4,1.9,1.3,2.2c1.7-0.4,3.7-1.8,6-4.5
	c2.3-2.6,5-6.6,8.3-12.1c0.6-1.1,1.3-2.3,2-3.6s1.5-2.7,2.3-4.1c0.8-1.4,1.5-2.9,2.3-4.4C162,507.2,162.7,505.7,163.3,504.4z
	 M226.6,513.1c-1,0-2.1,0.6-3.5,1.8s-2.9,2.7-4.5,4.5c-1.6,1.8-3.2,3.9-5,6.1s-3.4,4.4-5,6.6c-1.6,2.2-3.1,4.3-4.5,6.2
	s-2.6,3.5-3.5,4.6c-1.3-0.5-2.5-1.3-3.4-2.4c-1-1-1.7-2.4-2.1-3.9c0.3-1.9,0.7-3.8,1.3-5.8c0.5-2,1.2-4.1,2.1-6.2
	c0.9-2.2,1.9-4.4,3.2-6.8s2.9-4.9,4.7-7.5c-0.9,0-2.1,0.6-3.7,1.8c-1.6,1.2-3.2,2.8-5,4.8s-3.7,4.1-5.6,6.6
	c-1.9,2.4-3.7,4.8-5.4,7.2c-2.2,3.1-4.1,5.9-5.5,8.2c-1.5,2.3-2.5,3.7-3.2,4.1c-1.6-1.1-2.6-2.4-3.2-3.7c-0.6-1.3-1.1-2.8-1.3-4.4
	c0.1-1.4,0.3-3.2,0.7-5.4s0.9-4.4,1.7-6.7c1.4-4.4,3.2-8.7,5.4-13c2.2-4.3,4.3-8.3,6.3-11.9c1.7,0.4,3.2,0.9,4.5,1.7
	c1.3,0.8,2.8,1.9,4.3,3.4c-0.6,1.9-1.5,3.8-2.8,5.9s-2.6,4.2-4,6.5s-2.6,4.6-3.8,7c-1.1,2.4-1.9,4.8-2.3,7.3c1.7-2.4,3.7-5.2,6-8.3
	s4.7-6.1,7.1-8.8c2.4-2.8,4.8-5.1,7.2-7s4.6-2.9,6.5-2.9c0.7,0,1.5,0.1,2.3,0.4c0.8,0.2,1.6,0.5,2.3,0.9s1.3,0.7,1.8,1
	s0.7,0.6,0.8,0.8c-0.3,1.2-1,2.8-2.1,4.9s-2.3,4.2-3.6,6.5s-2.4,4.5-3.5,6.6s-1.7,3.8-1.9,5.1c2.9-4,5.7-7.7,8.3-10.9
	c2.6-3.3,5-6.1,7.3-8.4s4.4-4.1,6.3-5.4c1.9-1.3,3.8-1.9,5.5-1.9c1.2,0,2.3,0.3,3.4,0.9c1,0.6,1.8,1.5,2.2,2.7
	c-0.5,1.8-1.4,4-2.7,6.5c-1.2,2.5-2.5,5.2-3.7,8s-2.4,5.5-3.4,8.2s-1.5,5.1-1.5,7.3c0,1.3,0.2,2.1,0.5,2.5c0.4,0.4,0.9,0.6,1.5,0.6
	c0.7,0,1.4-0.1,2-0.4c0.6-0.3,1.1-0.4,1.4-0.4c0.4,0.2,0.6,0.5,0.6,0.9c0.1,0.4,0.1,0.7,0.1,1c-1.2,1-2.4,1.8-3.7,2.4
	c-1.3,0.6-2.7,0.9-4.2,0.9c-1.4,0-2.6-0.2-3.6-0.7c-0.9-0.5-1.7-1.1-2.3-2c-0.6-0.8-1-1.8-1.3-2.9c-0.2-1.1-0.4-2.2-0.4-3.5
	c0-2,0.3-4.1,0.8-6.1s1.2-3.9,1.9-5.8c0.7-1.8,1.5-3.5,2.4-5.1C225.3,515.8,226,514.4,226.6,513.1z M275.8,503.5
	c-0.2,3.7-0.9,6.9-2,9.6s-2.6,5-4.6,7s-4.5,3.8-7.3,5.4c-2.8,1.6-6.2,3.2-10.1,4.7c0,0.4,0,0.7,0,1.1c0,0.4,0,0.8,0,1.2
	c0,0.8,0.1,1.6,0.2,2.4c0.1,0.8,0.3,1.6,0.6,2.3s0.7,1.3,1.3,1.8s1.2,0.7,2.1,0.7c1.6,0,3.2-0.4,4.8-1.1c1.6-0.7,3-1.6,4.5-2.7
	c1.4-1,2.7-2.2,4-3.4c1.2-1.2,2.3-2.4,3.3-3.4c0.6,0.5,1.1,1,1.5,1.5c-2.7,3.6-5.7,6.6-8.9,9c-3.2,2.4-6.3,3.9-9.1,4.5
	c-4.1-0.5-7.4-2-9.7-4.5s-3.5-5.6-3.5-9.2c0-2.5,0.3-5,1-7.5s1.6-5,2.9-7.4c1.2-2.4,2.7-4.6,4.3-6.7s3.4-3.9,5.3-5.5
	c1.9-1.6,3.8-2.8,5.8-3.7c2-0.9,4-1.3,6-1.3C270.8,498.7,273.4,500.4,275.8,503.5z M269.4,506.4c-1.6,0.2-3.3,0.9-5,2
	c-1.7,1.1-3.4,2.5-4.9,4.3s-2.9,3.9-4.2,6.3s-2.3,5-3,7.7c4.8-2.4,8.8-5.4,12-8.9C267.5,514.4,269.3,510.6,269.4,506.4z
	 M310.9,504.8c-0.1,1.1-0.3,2.3-0.6,3.6c-0.3,1.2-0.7,2.3-1.2,3.3s-1,1.8-1.5,2.5s-1.1,1-1.5,1c-0.7-0.1-1.1-0.5-1.2-1.3
	c0-0.2,0.1-0.5,0.2-0.9c0.1-0.4,0.3-0.8,0.5-1.3c0.2-0.5,0.3-1,0.5-1.4c0.1-0.5,0.2-0.9,0.2-1.3c0-0.8-0.2-1.5-0.6-2.1
	s-0.9-0.9-1.6-0.9c-2.4,0-4.2,1.5-5.5,4.5s-1.9,7.4-1.9,13.2c0,0.6,0,1,0.1,1.1c1.3,0,2.4,0,3.4,0s2,0,2.9,0
	c0.1,0.1,0.1,0.4,0.1,0.7c0,0.5-0.1,0.9-0.4,1.2c-1.4,0.3-2.5,0.6-3.3,0.8s-1.4,0.4-1.8,0.6c-0.4,0.2-0.7,0.4-0.8,0.6
	s-0.1,0.5-0.1,0.9c0,0.5,0,1,0,1.4c0,0.5,0,1.1,0,1.8c0,5-1.4,9.1-4.1,12.1c-2.7,3.1-6.5,4.8-11.4,5.3c-0.8-0.1-1.7-0.3-2.6-0.7
	s-1.8-1-2.6-1.6c-0.8-0.7-1.5-1.4-2.1-2.2s-1-1.6-1.3-2.5c0-2.3,0.5-4.5,1.4-6.6c1-2.1,2.3-3.9,3.9-5.5c1.7-1.6,3.6-2.9,5.9-3.9
	s4.7-1.5,7.3-1.5c0-1.5-0.2-3-0.5-4.4s-0.6-2.8-0.9-4.2c-0.3-1.4-0.6-2.7-0.9-4c-0.3-1.3-0.5-2.6-0.5-3.8c0-1.6,0.3-3.2,1-4.8
	c0.7-1.6,1.5-3.1,2.6-4.4c1.1-1.4,2.3-2.5,3.8-3.5c1.4-1,2.9-1.6,4.5-2c0.7,0.2,1.5,0.7,2.7,1.6c1.1,0.9,2.2,1.8,3.3,2.9
	s2,2.2,2.9,3.3C310.3,503.1,310.8,504.1,310.9,504.8z M281.1,545.8c1.4-0.6,2.8-1.5,4.1-2.6c1.3-1.1,2.4-2.4,3.4-3.9
	c1-1.4,1.7-3,2.3-4.6c0.6-1.6,0.9-3.2,0.9-4.8c-1.2,0.2-2.5,0.7-4,1.7c-1.4,0.9-2.8,2-4.1,3.3c-1.3,1.3-2.3,2.6-3.1,4
	c-0.8,1.4-1.3,2.6-1.3,3.6C279.4,543.9,279.9,545,281.1,545.8z"/>
</svg>
