<?xml version="1.0" encoding="utf-8"?>
<!-- Generator: Adobe Illustrator 19.0.0, SVG Export Plug-In . SVG Version: 6.00 Build 0)  -->
<svg version="1.1"
	 id="svg3680" xmlns:rdf="http://www.w3.org/1999/02/22-rdf-syntax-ns#" xmlns:svg="http://www.w3.org/2000/svg" xmlns:dc="http://purl.org/dc/elements/1.1/" xmlns:cc="http://creativecommons.org/ns#" xmlns:inkscape="http://www.inkscape.org/namespaces/inkscape" xmlns:sodipodi="http://sodipodi.sourceforge.net/DTD/sodipodi-0.dtd" inkscape:version="0.92.1 r15371" sodipodi:docname="LOGO MINEO GAMES 2.svg"
	 xmlns="http://www.w3.org/2000/svg" xmlns:xlink="http://www.w3.org/1999/xlink" x="0px" y="0px" viewBox="306 221.2 410 336.4"
	 style="enable-background:new 306 221.2 410 336.4;" xml:space="preserve">
<link href="https://fonts.googleapis.com/css?family=Kaushan+Script" rel="stylesheet" />
<style type="text/css">
	.st0{fill:#232323;}
	.st1{fill:none;stroke:#232323;stroke-width:1.5;stroke-miterlimit:10;}
	.st2{fill:#FFFFFF;}
	.st3{fill:#008CB7;}
	.st4{font-family:'Kaushan Script';}
	.st5{font-size:90px;}
	.st6{fill:#D82740;}
</style>
<sodipodi:namedview  inkscape:cy="327.34327" guidetolerance="10" gridtolerance="10" showgrid="false" inkscape:cx="304.99279" id="namedview3682" pagecolor="#ffffff" bordercolor="#666666" borderopacity="1" inkscape:zoom="1.9044743" objecttolerance="10" inkscape:pageshadow="2" inkscape:pageopacity="0" inkscape:current-layer="svg3680" inkscape:window-maximized="1" inkscape:window-height="1001" inkscape:window-width="1920" inkscape:window-y="-9" inkscape:window-x="-9">
	</sodipodi:namedview>
<g id="path3758" inkscape:connector-curvature="0">
	<g>
		<g>
			<g>
				<path class="st0" d="M537.9,431.1c-3.6-1-5.3-1.5-7.5-1.7c-1.8-0.2-2.6-0.3-3.7,0c-3.1,0.6-4.9,3.1-6,4.7
					c-6.4,9.2-9.7,13.8-10.7,18.4c-0.9,4-1.8,8-0.2,12.9c2.1,6.5,6.9,10,8.5,11.2c6.1,4.5,12.3,4.5,14.6,4.5c2.8,0,7.6,0,12-3.1
					c5.2-3.6,6.6-9.2,7.1-11.3c0.2-0.8,0.7-2.9,0.3-10.5c-0.6-12.2-1-18.5-4.8-21c-1-0.7-3.4-1.9-6.2-2.9
					C540.4,431.8,539.5,431.5,537.9,431.1z M486.1,373.5c-2.2-9.9-2.3-9.6-4.5-16.3c-2.5-7.5-8.6-25.9-13.6-40.8
					c-5-15-9.6-28.7-13-38.8c-3.4-10.1-4.8-14.1-4.8-14.1c-0.5-1.5-2.1-2.1-3.5-1.3c0,0-1.1,0.6-4.6,3.1s-7,5.3-7.6,5.8
					c-2.7,2-5.3,4.1-7.9,6.2s-5.2,4.2-7.8,6.3c-0.6,0.5-1.2,1-1.8,1.5c-0.8,0.6-1.1,1.1-1.8,1.4c-0.4,0.1-0.9,0.4-1.5,0.1
					c-0.7-0.3-1-1-1.1-1.7c-0.1-1.6-0.1-3-0.2-4c-0.1-3.2-0.1-5.9-0.1-7.5c0-0.1,0-0.1,0-0.1c0-0.1,0-0.2,0-0.3
					c-0.1-6.8-0.1-38.1,0.1-42.7c0.1-1.3,0.1-2.6,0.8-2.9c0.7-0.2,3.8,2.9,4.8,3.7c1.4,1.1,24.2,20.3,26.7,22.4s7.8,3.9,11.8,3.9
					s10.4,0,14.4,0s10.4,0,14.4,0s10.4,0,14.4,0s9-1.5,11.1-3.3c0,0,0,0,3.9-3.3c3.9-3.3,21.7-18.8,23.6-20.1
					c0.4-0.3,0.8-0.6,1.3-0.9c0.4-0.2,0.9-0.5,1.4-0.3c0.6,0.2,0.7,1,0.7,1.5c0.1,1.5,0.5,16.5,0.5,20c0,0.8,0,1.6,0,2.4
					c0,2.7,0,5.4,0,8.1c0,9,0.1,18,0.1,27.1s-0.1,18-0.3,27.1c-0.1,4.4-0.6,8.7-1.7,12.9c-1,4.1-2.6,8.1-4.9,12
					c-8.6,14.6-24.2,24.4-40,29.5 M520.1,473.9c-1.6-1-3-2.2-4.3-3.6c-4.5-5-5.7-12.6-3-18.5c0.8-1.7,2-3.3,3.7-4
					c1.5-0.7,3.1-0.6,4.7-0.5c6.7,0.3,13.5,1.9,19.7,5.1c3.6,1.8,7.1,4.4,8.3,8.2c0.8,2.6,0.4,5.4-0.7,7.7
					c-2.4,5.1-7.2,9.2-12.9,9.6c-3,0.3-6.1-0.3-9.2-1.3C524.4,476.2,522.2,475.2,520.1,473.9z M537.9,448.5
					c-0.6-0.2-1.4-0.6-1.9-0.9c-0.8-0.3-0.9-0.8-0.4-1.5c1.9-2.6,3.4-5.3,2.7-8.8c-0.3-1.8-0.6-2.5-0.1-3.1c1-1,3.7,0.2,4.5,0.6
					c0.9,0.4,3.4,1.6,5,4.3c1.1,1.9,1.3,3.6,1.5,6.7c0.2,2,0.3,4.8-0.3,8.1C541.4,449.9,538.7,448.9,537.9,448.5z M520.5,438.6
					c2.9-3.9,4.5-5.8,6.1-6.5c3.8-1.5,8.6,0.1,8.9,1.5c0.1,0.2-0.1,0.7-0.5,1.6s-0.6,1.2-1.1,2.2c-0.6,1.2-0.9,1.7-1.1,2.3
					c-0.1,0.6-0.4,1.4-0.2,2.7c0,0.7,0.3,1.3,0.5,2.7c0.2,1.1,0,1.3,0,1.3c-0.3,0.5-1.4,0.3-3.7-0.1c-1.6-0.2-2.3-0.4-2.6-0.4
					c-1.1-0.1-2.6-0.4-4.6-0.5c-2.9-0.3-5.1-0.7-5.5-0.8l0,0c-0.1-0.1,0.3-0.4,0.3-0.6c0.1-0.1-0.4,0.6,0.9-1.4
					C519.3,440.2,520,439.1,520.5,438.6z M533.8,440.2c0.4-1.7,1.5-3.5,2.5-3.3c0.8,0.2,1.3,2.7,0.7,4.6c-0.4,1.3-1.3,2.9-2.2,2.7
					C534,444.1,533.5,441.9,533.8,440.2z M540.5,238.5c-0.2-0.4-0.2-0.6-0.3-0.7c-1.3-1-7.6,7-17.8,16.4c-3.8,3.5-8,7-7.1,9.6
					c0.2,0.6,0.7,1,1,1.2c6.3,4.9,8.3,6.9,16.3,13.5c4.5,3.7,8.2,3.7,8.3,0S541,239.8,540.5,238.5z M545.1,317.4c0-1.1,5-1,13-1
					s13,0,13,1c0,0.9-5,1-13,1S545.1,318.4,545.1,317.4z M452.5,310.8c0,0.3,0,0.4,0,0.4l0,0c0,0-0.7,0-1.6,0s-3.2,0-3.2,0
					s0-0.1,0-0.3c0,0,0,0,0-0.1 M447.9,288.5c0-1.6,1-2.8,2.2-2.8s2.3,1.2,2.3,2.6c0,0,0,0,0,1.3c0,4.1,0,9.9,0,16.9
					c0,1.3,0,1.3,0,1.3c0,0.9-1,1.7-2.2,1.7l0,0l0,0c-1.2,0-2.2-0.8-2.2-1.8c0,0,0,0,0-0.9C447.9,299.6,447.9,288.5,447.9,288.5z"/>
			</g>
		</g>
	</g>
</g>
<path d="M539.7,438.5"/>
<path d="M530.9,437.3"/>
<path class="st1" d="M537.6,432.1c0.7-2.3,1.5-5.7,2.1-9.8c0.6-4.5,1-6.8,0.5-9.3c-1.1-6.1-5.5-10-7.1-11.5c-3.8-3.4-7.6-4.7-9-5.1
	c-4.4-1.4-6.4-0.5-12.4-1c-2.6-0.2-8.8-0.7-12.9-2.5c-8.4-3.8-11.3-15-12.3-20.9"/>
<path d="M531.1,442.4"/>
<path d="M532.7,438"/>
<path d="M532.3,436.9"/>
<path d="M533.2,435"/>
<g>
	<path class="st2" d="M507,310.7c0,0.3,0,0.4,0,0.4l0,0c0,0-0.7,0-1.6,0s-3.2,0-3.2,0s0-0.1,0-0.3c0,0,0,0,0-0.1"/>
</g>
<path d="M456.3,296.7"/>
<g>
	<path class="st0" d="M544.9,308.9c0-1.1,5-1,13-1s13,0,13,1c0,0.9-5,1-13,1S544.9,310,544.9,308.9z"/>
</g>
<g>
	<path class="st0" d="M544.9,300.3c0-1.1,5-1,13-1s13,0,13,1c0,0.9-5,1-13,1S544.9,301.4,544.9,300.3z"/>
</g>
<g>
	<path class="st2" d="M502.3,288.4c0-1.6,1-2.8,2.2-2.8s2.3,1.2,2.3,2.6c0,0,0,0,0,1.3c0,4.1,0,9.9,0,16.9c0,1.3,0,1.3,0,1.3
		c0,0.9-1,1.7-2.2,1.7l0,0l0,0c-1.2,0-2.2-0.8-2.2-1.8c0,0,0,0,0-0.9C502.4,299.6,502.3,288.4,502.3,288.4z"/>
</g>
<text transform="matrix(1 0 0 1 318.6254 474.1909)" class="st3 st4 st5">M</text>
<text transform="matrix(1 0 0 1 397.2589 474.1912)" class="st0 st4 st5">ine   </text>
<text transform="matrix(0.9991 4.223804e-002 -4.223804e-002 0.9991 455.4051 543.4315)" class="st6 st4 st5">G</text>
<text transform="matrix(1 0 0 1 517.1625 531.8602)" class="st0 st4 st5">ames</text>
</svg>
