<?xml version="1.0" encoding="utf-8"?>
<!-- Generator: Adobe Illustrator 19.0.0, SVG Export Plug-In . SVG Version: 6.00 Build 0)  -->
<svg version="1.1"
	 id="svg3680" xmlns:cc="http://creativecommons.org/ns#" xmlns:svg="http://www.w3.org/2000/svg" xmlns:dc="http://purl.org/dc/elements/1.1/" xmlns:sodipodi="http://sodipodi.sourceforge.net/DTD/sodipodi-0.dtd" xmlns:inkscape="http://www.inkscape.org/namespaces/inkscape" xmlns:rdf="http://www.w3.org/1999/02/22-rdf-syntax-ns#" sodipodi:docname="LOGO MINEO GAMES 2.svg" inkscape:version="0.92.1 r15371"
	 xmlns="http://www.w3.org/2000/svg" xmlns:xlink="http://www.w3.org/1999/xlink" x="0px" y="0px" viewBox="-112 209.6 425 369"
	 style="enable-background:new -112 209.6 425 369;" xml:space="preserve">
<style type="text/css">
	.st0{fill:none;stroke:#2D2D2D;stroke-width:1.5;stroke-miterlimit:10;}
	.st1{fill:#2D2D2D;}
	.st2{fill:#232323;}
	.st3{fill:url(#SVGID_1_);enable-background:new    ;}
	.st4{fill:url(#SVGID_2_);enable-background:new    ;}
</style>
<link  rel="stylesheet" href="https://fonts.googleapis.com/css?family=Kaushan+Script"></link>
<sodipodi:namedview  inkscape:window-x="-9" inkscape:window-y="-9" inkscape:window-width="1920" inkscape:window-height="1001" inkscape:current-layer="svg3680" inkscape:pageopacity="0" inkscape:pageshadow="2" inkscape:window-maximized="1" objecttolerance="10" inkscape:zoom="1.9044743" borderopacity="1" bordercolor="#666666" inkscape:cx="304.99279" pagecolor="#ffffff" id="namedview3682" inkscape:cy="327.34327" showgrid="false" gridtolerance="10" guidetolerance="10">
	</sodipodi:namedview>
<path d="M133.7,442.1"/>
<path d="M124.9,440.9"/>
<path class="st0" d="M132.9,440.4c2.5-6.1,3-11.4,3-14.8c0-2.5,0-5.1-0.9-8.4c-0.4-1.4-2.2-7.3-7.9-12.2c-4-3.5-8-4.8-9-5.1
	c-4.4-1.4-6.4-0.5-12.4-1c-2.6-0.2-8.8-0.7-12.9-2.5c-8.4-3.8-11.3-15-12.3-20.9"/>
<path d="M125.1,446"/>
<path d="M126.7,441.6"/>
<path d="M126.3,440.5"/>
<path d="M127.2,438.6"/>
<path d="M50.3,300.3"/>
<g>
	<g>
		<path class="st1" d="M44.2,313.1c1.2,0,2.2-0.8,2.2-1.7c0,0,0,0,0-1.3c0-7,0-12.8,0-16.9c0-1.3,0-1.3,0-1.3c0-1.4-1.1-2.6-2.3-2.6
			s-2.2,1.2-2.2,2.8c0,0,0,11.1,0.1,18.3c0,0.9,0,0.9,0,0.9C42,312.3,43,313.1,44.2,313.1z"/>
		<path class="st1" d="M41.7,314.5c0,0.2,0,0.3,0,0.3s2.3,0,3.2,0c0.9,0,1.6,0,1.6,0s0-0.1,0-0.4h-4.8
			C41.7,314.5,41.7,314.5,41.7,314.5z"/>
		<path class="st1" d="M151.9,313.5c8,0,13-0.1,13-1c0-1-5-1-13-1s-13-0.1-13,1C138.9,313.6,143.9,313.5,151.9,313.5z"/>
		<path class="st1" d="M151.9,304.9c8,0,13-0.1,13-1c0-1-5-1-13-1s-13-0.1-13,1C138.9,305,143.9,304.9,151.9,304.9z"/>
		<path class="st1" d="M136.2,257c0-0.8,0-1.6,0-2.4c0-3.5-0.4-18.5-0.5-20c0-0.5-0.1-1.3-0.7-1.5c-0.5-0.2-1,0.1-1.4,0.3
			c-0.5,0.3-0.9,0.6-1.3,0.9c-1.9,1.3-19.7,16.8-23.6,20.1s-3.9,3.3-3.9,3.3c-2.1,1.8-7.1,3.3-11.1,3.3s-10.4,0-14.4,0
			s-10.4,0-14.4,0s-10.4,0-14.4,0s-9.3-1.8-11.8-3.9S13.4,235.8,12,234.7c-1-0.8-4.1-3.9-4.8-3.7c-0.7,0.3-0.7,1.6-0.8,2.9
			c-0.2,4.6-0.2,35.9-0.1,42.7c0,0.1,0,0.2,0,0.3c0,0,0,0,0,0.1c0,1.6,0,4.3,0.1,7.5c0.1,1,0.1,2.4,0.2,4c0.1,0.7,0.4,1.4,1.1,1.7
			c0.6,0.3,1.1,0,1.5-0.1c0.7-0.3,1-0.8,1.8-1.4c0.6-0.5,1.2-1,1.8-1.5c2.6-2.1,5.2-4.2,7.8-6.3c2.6-2.1,5.2-4.2,7.9-6.2
			c0.6-0.5,4.1-3.3,7.6-5.8s4.6-3.1,4.6-3.1c1.4-0.8,3-0.2,3.5,1.3c0,0,1.4,4,4.8,14.1c3.4,10.1,8,23.8,13,38.8
			c5,14.9,11.1,33.3,13.6,40.8c2.2,6.7,2.3,6.4,4.5,16.3l9.3-3.4c15.8-5.1,31.4-14.9,40-29.5c2.3-3.9,3.9-7.9,4.9-12
			c1.1-4.2,1.6-8.5,1.7-12.9c0.2-9.1,0.3-18,0.3-27.1c0-9.1-0.1-18.1-0.1-27.1C136.2,262.4,136.2,259.7,136.2,257z M98.5,289.2
			c1.2,0,2.3,1.2,2.3,2.6c0,0,0,0,0,1.3c0,4.1,0,9.9,0,16.9c0,1.3,0,1.3,0,1.3c0,0.9-1,1.7-2.2,1.7s-2.2-0.8-2.2-1.8c0,0,0,0,0-0.9
			c0-7.1-0.1-18.3-0.1-18.3C96.3,290.4,97.3,289.2,98.5,289.2z M101,314.7c0,0-0.7,0-1.6,0c-0.9,0-3.2,0-3.2,0s0-0.1,0-0.3
			c0,0,0,0,0-0.1h4.8C101,314.6,101,314.7,101,314.7z M134.9,282.1c-0.1,3.7-3.8,3.7-8.3,0c-8-6.6-10-8.6-16.3-13.5
			c-0.3-0.2-0.8-0.6-1-1.2c-0.9-2.6,3.3-6.1,7.1-9.6c10.2-9.4,16.5-17.4,17.8-16.4c0.1,0.1,0.1,0.3,0.3,0.7
			C135,243.4,135,278.4,134.9,282.1z"/>
		<path class="st1" d="M152.1,320c-8,0-13-0.1-13,1c0,1,5,1,13,1s13-0.1,13-1C165.1,320,160.1,320,152.1,320z"/>
	</g>
	<path class="st1" d="M132.8,439.3c-1.3-0.5-2.4-0.8-2.7-0.9c-3.8-1.1-7.3-1.5-8.8-1.4c-7.9,0.2-13.9,14-14.5,15.5
		c-2,4.6-4.7,10.8-2.1,17.3c1.7,4.3,5.1,6.8,7,8.2c5.3,3.9,10.8,4.6,13.4,4.7c3,0.1,7.4,0.3,11.3-2.5c2.3-1.7,3.7-4,4.2-4.8
		c1-1.8,1.5-3.4,1.9-4.7c0.5-1.8,0.7-3.2,1-5.1c0.1-0.8,0.2-2.2,0.5-4.8c0.2-2.1,0.3-3.2,0.3-4.2c0.1-2.3,0.2-3.4,0.1-4.6
		c-0.1-1.9-0.2-3.9-1.2-5.8C141.3,442.6,137.5,441.1,132.8,439.3z M134.2,446.9c0.2-1,0.1-1.8,0.1-2.6c-0.1-0.9-0.2-1.6-0.3-2.2
		c1.5,0.6,2.7,1.3,3.6,1.8c1.4,1,2.6,1.7,3.5,3.2c0.7,1.1,0.8,2.1,1,3.5c0.3,1.8,0.2,3.1,0,5.3c-0.1,1.1-0.2,2.7-0.5,4.5
		c-2.4-1.9-4.2-3.2-5.1-3.7c-0.6-0.4-1.4-0.8-1.4-0.8c-0.3-0.2-0.7-0.4-1.1-0.6c-0.5-0.2-1-0.5-1.5-0.8c-1.1-0.5-2-0.9-2.7-1.2
		c0.2-0.3,0.5-0.6,0.9-1c0.6-0.6,0.9-0.7,1.3-1.1c0.8-0.7,1.2-1.4,1.4-1.9C133.9,448.3,134.1,447.4,134.2,446.9z M132.2,447.9
		c-0.7,1.9-2.6,3.8-3.6,3.4c-1-0.4-1.2-2.9-0.4-4.7c0.8-1.7,2.7-3.3,3.7-2.8C132.8,444.2,132.7,446.4,132.2,447.9z M118.6,450.2
		c-0.7-0.1-0.9-0.1-1.2-0.1c-0.2,0-0.3,0-0.4,0c-0.2,0-0.8,0-1.9,0c0.4-0.8,0.9-2,1.7-3.3c0.8-1.4,1.4-2.3,2.3-3.3
		c0.9-0.9,2.1-2.2,4.1-2.8c1.9-0.6,3.7-0.3,5.1,0c1.2,0.2,2.2,0.6,2.8,0.8c-0.6,0.3-1.3,0.7-2,1.3c-0.3,0.3-1.1,1-1.7,2.1
		c-0.3,0.4-0.6,1-0.8,1.9c-0.1,0.4-0.3,1.1-0.2,2.1c0.1,0.8,0.3,1.1,0.2,1.9c-0.1,0.4-0.2,0.8-0.3,1c-1.1-0.3-2-0.6-2.7-0.8
		c-0.7-0.2-1.4-0.3-2.3-0.5C120.3,450.4,119.5,450.3,118.6,450.2z M138.2,474.7c-0.6,0.8-2.2,2.5-4.7,3.6c-3.4,1.4-6.5,0.7-9.5,0.1
		c-2.1-0.5-5.4-1.2-8.6-3.8c-1.2-1-2.9-2.4-4-4.9c-1.8-4-0.8-7.7-0.4-9.2c0.6-2.2,1.3-4.8,3.6-6.2c1.8-1,3.6-0.9,6.4-0.6
		c3.3,0.3,5.7,1.2,8.2,2.3c3.7,1.5,6,3,7,3.7c2.2,1.5,3.3,2.3,4,3.8c1.1,2.2,0.7,4.3,0.5,5.8C140,472.2,138.5,474.3,138.2,474.7z
		 M133.3,442.8"/>
	<path class="st2" d="M110.9,448.6C110.8,448.7,110.9,448.6,110.9,448.6L110.9,448.6z"/>
</g>
<linearGradient id="SVGID_1_" gradientUnits="userSpaceOnUse" x1="-86.5112" y1="448.06" x2="102.8477" y2="448.06">
	<stop  offset="0" style="stop-color:#008CB7"/>
	<stop  offset="0.219" style="stop-color:#018AB5"/>
	<stop  offset="0.3251" style="stop-color:#0385AD"/>
	<stop  offset="0.4068" style="stop-color:#077CA0"/>
	<stop  offset="0.4763" style="stop-color:#0D708E"/>
	<stop  offset="0.5377" style="stop-color:#155F76"/>
	<stop  offset="0.5937" style="stop-color:#1F4B58"/>
	<stop  offset="0.6443" style="stop-color:#2A3335"/>
	<stop  offset="0.6552" style="stop-color:#2D2D2D"/>
	<stop  offset="1" style="stop-color:#2D2D2D"/>
</linearGradient>
<path class="st3" d="M-44.5,484.4c-0.1,0.1-0.2,0.1-0.4,0.1c-0.1,0-0.4,0-0.7,0c-0.8,0-1.8-0.1-2.9-0.4c-1.1-0.3-2.2-0.6-3.2-1
	c-1.1-0.4-2-0.8-2.7-1.3c-0.8-0.5-1.2-0.9-1.4-1.3c-0.1-0.8-0.1-1.7-0.1-2.6c0-0.9,0-1.8,0-2.6c0-6.7,0.5-13.7,1.5-21.1
	c1-7.3,2.6-15.2,4.9-23.8c0.2-0.8,0.5-1.9,0.8-3.2c0.3-1.3,0.6-2.7,0.9-4.2c-1.4,1.1-3.1,3-5.1,5.4c-2,2.5-4.1,5.4-6.3,8.8
	c-2.2,3.4-4.4,7.1-6.6,11.2c-2.2,4-4.2,8.2-6,12.3c-1.8,4.2-3.3,8.3-4.6,12.4c-1.3,4.1-2.1,7.9-2.4,11.3c-2.9-0.8-4.9-1.7-6-2.5
	c-1.1-0.8-1.7-1.9-1.7-3.1c0-1.1,0.3-2.6,1-4.6c0.7-2,1.6-4.3,2.8-7c1.2-2.7,2.7-5.7,4.4-9c1.7-3.3,3.7-6.9,5.8-10.8
	c2.4-4.4,4.8-8.5,7.1-12.3c2.3-3.8,4.6-7.3,6.8-10.4c2.2-3.1,4.4-5.8,6.5-8.1c2.1-2.3,4.2-4,6.3-5.2c0.8,0,2,0.2,3.4,0.6
	c1.4,0.4,2.8,0.9,4.1,1.5c1.4,0.6,2.5,1.2,3.6,1.8c1,0.6,1.6,1.2,1.8,1.6c-0.8,1.7-1.8,4.2-3,7.6c-1.1,3.4-2.3,7.2-3.5,11.4
	c-1.2,4.3-2.3,8.8-3.3,13.5c-1.1,4.8-1.9,9.3-2.5,13.7c1.4-3.3,3-6.7,4.8-10.3c1.8-3.6,3.8-7.1,5.8-10.6c2-3.5,4.1-6.9,6.3-10.2
	c2.1-3.3,4.2-6.3,6.3-9c2-2.7,3.9-5.1,5.7-7.2c1.8-2,3.3-3.5,4.7-4.5c0.8,0,2,0.2,3.4,0.6c1.4,0.4,2.8,0.9,4.1,1.5
	c1.4,0.6,2.5,1.2,3.6,1.8c1,0.6,1.6,1.2,1.8,1.6c-1.9,3.4-3.6,7.6-5,12.5c-1.4,4.9-2.7,10.1-3.6,15.5c-1,5.4-1.7,10.8-2.3,16.1
	c-0.5,5.3-0.8,10.1-0.8,14.3c0,1.4,0,2.8,0,4.3c0,1.5,0.1,3.1,0.2,4.7c-0.8,0-1.8-0.1-3-0.3c-1.2-0.2-2.3-0.5-3.4-0.9
	c-1.1-0.4-2.1-0.8-3-1.2c-0.9-0.5-1.5-0.9-1.9-1.5c-0.1-0.8-0.1-1.7-0.1-2.6c0-0.9,0-1.8,0-2.6c0-6.7,0.5-13.7,1.5-21.1
	c1-7.3,2.6-15.2,4.9-23.8c0.2-0.8,0.5-2,0.8-3.4c0.3-1.4,0.6-2.9,0.9-4.5c-1.7,0.8-3.6,2.4-5.7,4.8c-2.1,2.4-4.3,5.3-6.5,8.6
	c-2.2,3.4-4.4,7.2-6.5,11.3c-2.1,4.1-4.1,8.4-5.8,12.6c-1.7,4.3-3.1,8.6-4.3,12.8C-43.5,477-44.2,480.9-44.5,484.4z M0.9,471.7
	c0-0.5,0-1.2,0.1-2c0.1-0.8,0.3-1.9,0.5-3.2c0.2-1.3,0.6-3,0.9-4.9c0.4-1.9,0.9-4.2,1.5-6.9c0.1-0.6,0.4-1.6,0.8-2.9
	c0.4-1.3,1-2.7,1.7-4.2c0.7-1.5,1.5-2.9,2.5-4.3c1-1.4,2.2-2.4,3.6-3.1c1,0.2,2.4,0.9,4,1.8c1.7,1,3.1,2.4,4.3,4.1
	c-1.4,1.6-2.5,3.1-3.5,4.7c-0.9,1.6-1.8,3.2-2.5,4.9c-0.8,1.7-1.4,3.4-2.1,5.2s-1.3,3.7-2.1,5.7c-0.7,1.7-1.3,3.4-1.8,5.2
	c-0.5,1.8-0.8,3.3-0.9,4.6c0,1.1,0,1.8,0,2.3c0,0.4-0.2,0.7-0.5,0.7c-0.2,0-0.7-0.2-1.4-0.5c-0.7-0.3-1.5-0.8-2.2-1.4
	c-0.8-0.6-1.4-1.4-2-2.4C1.2,474.2,0.9,473.1,0.9,471.7z M18.1,432.7c0-0.4,0.1-0.9,0.3-1.6c-0.3-0.3-0.6-0.8-0.8-1.3
	c-0.2-0.6-0.3-1.1-0.3-1.6c0-0.5,0.1-1.3,0.2-2.2c0.1-0.9,0.3-1.9,0.6-3c0.2-1.1,0.5-2.2,0.9-3.4c0.4-1.2,0.7-2.2,1.1-3.2
	c0.7,0,1.6,0.2,2.7,0.6c1,0.4,2.1,0.9,3.2,1.5c1.1,0.6,2.1,1.3,3,2.1c0.9,0.8,1.6,1.5,2.1,2.1c-0.7,0.7-1.5,1.6-2.6,2.7
	s-2.1,2.4-3.1,3.7c-1,1.3-2,2.5-2.8,3.6c-0.8,1.1-1.4,2-1.6,2.4c-0.7-0.1-1.4-0.4-1.9-0.9C18.3,433.6,18.1,433.2,18.1,432.7z
	 M36.6,434.1c1.6,0.5,3,1.5,4.4,3.2c1.4,1.7,2.4,3.5,3.1,5.4c-0.7,1.6-1.7,3.6-3.1,5.8c-1.4,2.3-2.8,4.6-4.1,7
	c-1.4,2.4-2.6,4.6-3.7,6.8c-1.1,2.1-1.8,3.9-1.9,5.3c1-1,2-2.2,3.2-3.6c1.2-1.4,2.3-2.7,3.4-4.1c1.1-1.3,2.1-2.6,3.1-3.7
	c1-1.1,1.7-1.9,2.3-2.5c1.1-1.2,2.5-2.6,4.1-4.2c1.6-1.6,3.2-3.1,4.9-4.5c1.7-1.4,3.4-2.6,5.2-3.6c1.7-1,3.3-1.5,4.8-1.5
	c1.6,0,2.9,0.5,3.9,1.6c1,1,1.9,2.1,2.5,3.3c0,0.1-0.2,0.3-0.7,0.5c-0.5,0.2-1.1,0.8-1.9,1.8c-0.8,1.1-1.8,2.6-2.8,4.5
	c-1.1,1.9-2.1,3.9-3.1,6.1c-1,2.2-1.8,4.4-2.5,6.7c-0.7,2.3-1,4.4-1,6.2c0,1.5,0.2,2.5,0.6,2.9c0.4,0.4,0.9,0.6,1.7,0.6
	c0.7,0,1.3-0.1,2.1-0.5c0.7-0.3,1.3-0.5,1.7-0.5c0.2,0.1,0.4,0.4,0.6,0.8c0.1,0.4,0.2,0.7,0.2,1c-0.5,0.4-1.1,0.8-1.7,1.3
	c-0.7,0.4-1.4,0.8-2.1,1.2c-0.7,0.4-1.4,0.7-2.1,0.9c-0.7,0.2-1.3,0.4-1.8,0.4c-1.7,0-3.2-0.3-4.3-0.8c-1.1-0.5-2-1.2-2.6-2
	c-0.6-0.8-1.1-1.8-1.3-3c-0.2-1.2-0.4-2.4-0.4-3.7c0-0.7,0.1-1.5,0.2-2.4c0.1-0.9,0.4-2,0.7-3.2c0.4-1.2,0.9-2.7,1.5-4.4
	c0.7-1.7,1.5-3.8,2.5-6.2c-0.1,0-0.9,0.4-2.4,1.3c-1.5,0.8-3.1,2.1-4.9,3.9c-2.8,2.7-5.4,5.4-7.6,8c-2.3,2.6-4.5,5.6-6.9,8.8
	c-1.3,1.9-2.5,3.4-3.5,4.7c-1,1.3-1.8,2.1-2.6,2.6c-1.3-0.7-2.2-1.7-2.8-3c-0.6-1.3-1.1-2.6-1.4-4c0-1.1,0.2-2.6,0.5-4.3
	c0.3-1.7,0.8-3.7,1.4-5.8c0.6-2.1,1.3-4.4,2.1-6.7c0.8-2.3,1.8-4.7,2.8-7c2.3-5.3,4.4-9.4,6.3-12.4C34.9,436,36.1,434.4,36.6,434.1z
	 M102.8,440.5c-0.2,3.7-0.9,6.9-2,9.6c-1.1,2.7-2.6,5-4.6,7c-2,2-4.5,3.8-7.3,5.4s-6.2,3.2-10.1,4.7c0,0.4,0,0.7,0,1.1
	c0,0.4,0,0.8,0,1.2c0,0.8,0.1,1.6,0.2,2.4c0.1,0.8,0.3,1.6,0.6,2.3c0.3,0.7,0.7,1.3,1.3,1.8s1.2,0.7,2.1,0.7c1.6,0,3.2-0.4,4.8-1.1
	c1.6-0.7,3-1.6,4.5-2.7c1.4-1,2.7-2.2,4-3.4c1.2-1.2,2.3-2.4,3.3-3.4c0.6,0.5,1.1,1,1.5,1.5c-1.6,2.3-4.3,5.9-8.9,9
	c-3.5,2.3-6.8,3.6-9.2,4.3c-1.4-0.1-6.2-0.6-9.6-4.3c-1.4-1.5-2.1-3.1-2.3-3.4c-0.8-1.8-1.2-3.7-1.2-5.8c0-2.5,0.3-5,1-7.5
	c0.7-2.5,1.6-5,2.9-7.4c1.2-2.4,2.7-4.6,4.3-6.7c1.6-2.1,3.4-3.9,5.3-5.5c1.9-1.6,3.8-2.8,5.9-3.7c2-0.9,4-1.3,6-1.3
	C97.9,435.7,100.4,437.4,102.8,440.5z M96.6,443.5c-1.6,0.2-3.3,0.9-5,2c-1.7,1.1-3.4,2.5-4.9,4.3c-1.5,1.8-2.9,3.9-4.2,6.3
	c-1.3,2.4-2.3,5-3,7.7c4.8-2.4,8.8-5.4,12-8.9C94.7,451.4,96.4,447.6,96.6,443.5z"/>
<linearGradient id="SVGID_2_" gradientUnits="userSpaceOnUse" x1="61.9287" y1="515.6586" x2="296.2422" y2="515.6586">
	<stop  offset="0" style="stop-color:#D82740"/>
	<stop  offset="0.1137" style="stop-color:#D42740"/>
	<stop  offset="0.2169" style="stop-color:#C9273E"/>
	<stop  offset="0.3159" style="stop-color:#B7283C"/>
	<stop  offset="0.3202" style="stop-color:#B6283C"/>
	<stop  offset="0.3679" style="stop-color:#B0283B"/>
	<stop  offset="0.4337" style="stop-color:#9E2939"/>
	<stop  offset="0.51" style="stop-color:#812A36"/>
	<stop  offset="0.5934" style="stop-color:#582B32"/>
	<stop  offset="0.67" style="stop-color:#2D2D2D"/>
	<stop  offset="1" style="stop-color:#2D2D2D"/>
</linearGradient>
<path class="st4" d="M108.2,516.9c1.6,0,2.8,0.5,3.7,1.6c0.9,1.1,1.3,2.6,1.3,4.5c0,0.5,0,1-0.1,1.5c-0.1,0.5-0.2,1-0.3,1.3
	c-1.3-0.3-2.6-0.5-4.1-0.5c-0.4,2.6-1.3,5.4-2.9,8.3c-1.6,2.9-3.5,5.6-5.7,8.1c-2.2,2.5-4.7,4.7-7.3,6.6c-2.6,1.9-5.3,3.2-7.8,3.8
	c-8,0-13.9-2-17.6-6c-3.7-4-5.5-10.2-5.5-18.7c0-6.2,1.1-12.2,3.4-18c2.3-5.8,5.3-11,9.1-15.5c3.8-4.5,8.1-8.1,13-10.9
	c4.9-2.7,10-4.1,15.3-4.1c4.1,0,7.4,0.9,9.7,2.6s3.5,4.2,3.5,7.4c0,2.1-0.5,4-1.5,5.8s-2.6,3.8-4.9,5.8c-1.4-0.4-2.6-1.2-3.6-2.2
	c-1-1-1.7-2.3-1.9-3.6c2-1.5,3.5-2.9,4.3-4.1c0.8-1.3,1.3-2.8,1.3-4.5c0-2.8-1.7-4.1-4.9-4.1c-2.7,0-5.6,1-8.7,3
	c-3.1,2-6.2,4.9-9.3,8.7c-4.4,5.3-7.7,10.9-9.7,16.5c-2,5.7-3.1,12.1-3.1,19.1c0,2.6,0.3,5,0.8,7.2s1.3,4.1,2.2,5.7
	c0.9,1.6,2,2.9,3.2,3.9c1.2,1,2.6,1.5,4,1.6c1.9-0.4,3.8-1.4,5.8-2.9c1.9-1.5,3.7-3.3,5.3-5.4c1.6-2.1,2.9-4.3,4-6.7
	c1.1-2.4,1.8-4.6,2-6.8c-1.7,0.4-3.3,0.7-4.8,1c-1.5,0.3-3,0.5-4.4,0.5c-1.8,0-3.4-0.4-4.7-1.3c-1.4-0.9-2.3-2.1-2.7-3.7
	c1.1-0.6,2.7-1.2,4.7-1.9c2.1-0.7,4.3-1.3,6.6-1.9c2.3-0.6,4.6-1,6.9-1.4C104.9,517.1,106.7,516.9,108.2,516.9z M148.7,499.4
	c0.6,0,1.3,0.1,2.1,0.3c0.8,0.2,1.5,0.5,2.2,0.8c0.7,0.3,1.2,0.7,1.7,1c0.5,0.4,0.7,0.7,0.7,1c-1.2,2.5-2.3,5.1-3.3,7.6
	c-1,2.6-1.9,5-2.6,7.3c-0.7,2.3-1.3,4.5-1.7,6.6c-0.4,2-0.6,3.8-0.6,5.3c0,1.7,0.2,3.1,0.5,4.2c0.4,1.1,1,1.9,1.8,2.4
	c-0.7,0.5-1.7,0.9-2.8,1.2c-1.1,0.3-2.2,0.5-3.1,0.5c-3.2,0-4.9-2.2-4.9-6.7c0-3.4,1.1-8.1,3.4-14c-1.2,2.7-2.6,5.3-4.1,7.8
	c-1.6,2.4-3.2,4.6-4.8,6.4c-1.6,1.9-3.3,3.4-4.9,4.5c-1.7,1.2-3.2,1.9-4.5,2.1c-2.2,0-4-1-5.4-3c-1.4-2-2.1-4.6-2.1-7.7
	c0-3.4,0.7-6.9,2.2-10.7c1.4-3.7,3.3-7.2,5.5-10.4c2.3-3.2,4.7-5.9,7.3-8c2.6-2.1,5.2-3.2,7.6-3.2c0.6,0.2,1.3,0.5,2,1.1
	c0.7,0.5,1.5,1.2,2.2,1.9c0.7,0.7,1.3,1.5,1.8,2.2c0.5,0.7,0.7,1.4,0.8,1.9c-2.4,0.4-4.9,1.5-7.4,3.5c-2.6,2-4.9,4.4-6.9,7.1
	c-2.1,2.8-3.8,5.8-5.1,8.9c-1.3,3.2-2,6.1-2,8.9c0,1.1,0.4,1.9,1.3,2.2c1.7-0.4,3.7-1.8,6-4.5c2.3-2.6,5-6.6,8.3-12.1
	c0.6-1.1,1.3-2.3,2-3.6c0.7-1.3,1.5-2.7,2.3-4.1c0.8-1.4,1.5-2.9,2.3-4.4C147.4,502.2,148.1,500.7,148.7,499.4z M212,508.1
	c-1,0-2.1,0.6-3.5,1.8c-1.4,1.2-2.9,2.7-4.5,4.5c-1.6,1.8-3.2,3.9-5,6.1s-3.4,4.4-5,6.6c-1.6,2.2-3.1,4.3-4.5,6.2
	c-1.4,1.9-2.6,3.5-3.5,4.6c-1.3-0.5-2.5-1.3-3.4-2.4c-1-1-1.7-2.4-2.1-3.9c0.3-1.9,0.7-3.8,1.3-5.8c0.5-2,1.2-4.1,2.1-6.2
	c0.9-2.2,1.9-4.4,3.2-6.8c1.3-2.4,2.9-4.9,4.7-7.5c-0.9,0-2.1,0.6-3.7,1.8c-1.6,1.2-3.2,2.8-5,4.8c-1.8,2-3.7,4.1-5.6,6.6
	c-1.9,2.4-3.7,4.8-5.4,7.2c-2.2,3.1-4.1,5.9-5.5,8.2c-1.5,2.3-2.5,3.7-3.2,4.1c-1.6-1.1-2.6-2.4-3.2-3.7c-0.6-1.3-1.1-2.8-1.3-4.4
	c0.1-1.4,0.3-3.2,0.7-5.4c0.4-2.2,0.9-4.4,1.7-6.7c1.4-4.4,3.2-8.7,5.4-13c2.2-4.3,4.3-8.3,6.3-11.9c1.7,0.4,3.2,0.9,4.5,1.7
	c1.3,0.8,2.8,1.9,4.3,3.4c-0.6,1.9-1.5,3.8-2.8,5.9c-1.3,2.1-2.6,4.2-4,6.5c-1.4,2.3-2.6,4.6-3.8,7c-1.1,2.4-1.9,4.8-2.3,7.3
	c1.7-2.4,3.7-5.2,6-8.3c2.3-3.1,4.7-6.1,7.1-8.8c2.4-2.8,4.8-5.1,7.2-7c2.4-1.9,4.6-2.9,6.5-2.9c0.7,0,1.5,0.1,2.3,0.4
	c0.8,0.2,1.6,0.5,2.3,0.9c0.7,0.4,1.3,0.7,1.8,1c0.5,0.3,0.7,0.6,0.8,0.8c-0.3,1.2-1,2.8-2.1,4.9c-1.1,2.1-2.3,4.2-3.6,6.5
	c-1.3,2.3-2.4,4.5-3.5,6.6c-1.1,2.1-1.7,3.8-1.9,5.1c2.9-4,5.7-7.7,8.3-10.9c2.6-3.3,5-6.1,7.3-8.4c2.3-2.3,4.4-4.1,6.3-5.4
	c1.9-1.3,3.8-1.9,5.5-1.9c1.2,0,2.3,0.3,3.4,0.9c1,0.6,1.8,1.5,2.2,2.7c-0.5,1.8-1.4,4-2.7,6.5c-1.2,2.5-2.5,5.2-3.7,8
	s-2.4,5.5-3.4,8.2c-1,2.7-1.5,5.1-1.5,7.3c0,1.3,0.2,2.1,0.5,2.5c0.4,0.4,0.9,0.6,1.5,0.6c0.7,0,1.4-0.1,2-0.4
	c0.6-0.3,1.1-0.4,1.4-0.4c0.4,0.2,0.6,0.5,0.6,0.9c0.1,0.4,0.1,0.7,0.1,1c-1.2,1-2.4,1.8-3.7,2.4c-1.3,0.6-2.7,0.9-4.2,0.9
	c-1.4,0-2.6-0.2-3.6-0.7c-0.9-0.5-1.7-1.1-2.3-2c-0.6-0.8-1-1.8-1.3-2.9c-0.2-1.1-0.4-2.2-0.4-3.5c0-2,0.3-4.1,0.8-6.1
	c0.5-2,1.2-3.9,1.9-5.8c0.7-1.8,1.5-3.5,2.4-5.1C210.7,510.8,211.4,509.4,212,508.1z M261.1,498.5c-0.2,3.7-0.9,6.9-2,9.6
	c-1.1,2.7-2.6,5-4.6,7c-2,2-4.5,3.8-7.3,5.4s-6.2,3.2-10.1,4.7c0,0.4,0,0.7,0,1.1c0,0.4,0,0.8,0,1.2c0,0.8,0.1,1.6,0.2,2.4
	c0.1,0.8,0.3,1.6,0.6,2.3c0.3,0.7,0.7,1.3,1.3,1.8s1.2,0.7,2.1,0.7c1.6,0,3.2-0.4,4.8-1.1c1.6-0.7,3-1.6,4.5-2.7
	c1.4-1,2.7-2.2,4-3.4c1.2-1.2,2.3-2.4,3.3-3.4c0.6,0.5,1.1,1,1.5,1.5c-2.7,3.6-5.7,6.6-8.9,9c-3.2,2.4-6.3,3.9-9.1,4.5
	c-4.1-0.5-7.4-2-9.7-4.5c-2.3-2.5-3.5-5.6-3.5-9.2c0-2.5,0.3-5,1-7.5c0.7-2.5,1.6-5,2.9-7.4c1.2-2.4,2.7-4.6,4.3-6.7
	c1.6-2.1,3.4-3.9,5.3-5.5c1.9-1.6,3.8-2.8,5.8-3.7c2-0.9,4-1.3,6-1.3C256.1,493.7,258.7,495.4,261.1,498.5z M254.8,501.4
	c-1.6,0.2-3.3,0.9-5,2c-1.7,1.1-3.4,2.5-4.9,4.3s-2.9,3.9-4.2,6.3c-1.3,2.4-2.3,5-3,7.7c4.8-2.4,8.8-5.4,12-8.9
	C252.9,509.4,254.6,505.6,254.8,501.4z M296.2,499.8c-0.1,1.1-0.3,2.3-0.6,3.6c-0.3,1.2-0.7,2.3-1.2,3.3c-0.5,1-1,1.8-1.5,2.5
	c-0.5,0.7-1.1,1-1.5,1c-0.7-0.1-1.1-0.5-1.2-1.3c0-0.2,0.1-0.5,0.2-0.9c0.1-0.4,0.3-0.8,0.5-1.3c0.2-0.5,0.3-1,0.5-1.4
	c0.1-0.5,0.2-0.9,0.2-1.3c0-0.8-0.2-1.5-0.6-2.1c-0.4-0.6-0.9-0.9-1.6-0.9c-2.4,0-4.2,1.5-5.5,4.5c-1.3,3-1.9,7.4-1.9,13.2
	c0,0.6,0,1,0.1,1.1c1.3,0,2.4,0,3.4,0c1,0,2,0,2.9,0c0.1,0.1,0.1,0.4,0.1,0.7c0,0.5-0.1,0.9-0.4,1.2c-1.4,0.3-2.5,0.6-3.3,0.8
	c-0.8,0.2-1.4,0.4-1.8,0.6c-0.4,0.2-0.7,0.4-0.8,0.6s-0.1,0.5-0.1,0.9c0,0.5,0,1,0,1.4c0,0.5,0,1.1,0,1.8c0,5-1.4,9.1-4.1,12.1
	c-2.7,3.1-6.5,4.8-11.4,5.3c-0.8-0.1-1.7-0.3-2.6-0.7c-0.9-0.4-1.8-1-2.6-1.6c-0.8-0.7-1.5-1.4-2.1-2.2c-0.6-0.8-1-1.6-1.3-2.5
	c0-2.3,0.5-4.5,1.4-6.6c1-2.1,2.3-3.9,3.9-5.5c1.7-1.6,3.6-2.9,5.9-3.9c2.3-1,4.7-1.5,7.3-1.5c0-1.5-0.2-3-0.5-4.4
	c-0.3-1.4-0.6-2.8-0.9-4.2c-0.3-1.4-0.6-2.7-0.9-4c-0.3-1.3-0.5-2.6-0.5-3.8c0-1.6,0.3-3.2,1-4.8c0.7-1.6,1.5-3.1,2.6-4.4
	c1.1-1.4,2.3-2.5,3.8-3.5c1.4-1,2.9-1.6,4.5-2c0.7,0.2,1.5,0.7,2.7,1.6c1.1,0.9,2.2,1.8,3.3,2.9s2,2.2,2.9,3.3
	C295.6,498.1,296.1,499.1,296.2,499.8z M266.5,540.8c1.4-0.6,2.8-1.5,4.1-2.6c1.3-1.1,2.4-2.4,3.4-3.9c1-1.4,1.7-3,2.3-4.6
	c0.6-1.6,0.9-3.2,0.9-4.8c-1.2,0.2-2.5,0.7-4,1.7c-1.4,0.9-2.8,2-4.1,3.3c-1.3,1.3-2.3,2.6-3.1,4c-0.8,1.4-1.3,2.6-1.3,3.6
	C264.7,538.9,265.3,540,266.5,540.8z"/>
</svg>
