<?xml version="1.0" encoding="utf-8"?>
<!-- Generator: Adobe Illustrator 19.0.0, SVG Export Plug-In . SVG Version: 6.00 Build 0)  -->
<svg version="1.1"
	 id="svg3680" xmlns:inkscape="http://www.inkscape.org/namespaces/inkscape" xmlns:svg="http://www.w3.org/2000/svg" xmlns:rdf="http://www.w3.org/1999/02/22-rdf-syntax-ns#" xmlns:cc="http://creativecommons.org/ns#" xmlns:dc="http://purl.org/dc/elements/1.1/" xmlns:sodipodi="http://sodipodi.sourceforge.net/DTD/sodipodi-0.dtd" inkscape:version="0.92.1 r15371" sodipodi:docname="LOGO MINEO GAMES 2.svg"
	 xmlns="http://www.w3.org/2000/svg" xmlns:xlink="http://www.w3.org/1999/xlink" x="0px" y="0px" viewBox="-62 205.9 470 430"
	 style="enable-background:new -62 205.9 470 430;" xml:space="preserve">
<style type="text/css">
	.st0{fill:#F9F9F9;}
	.st1{fill:#1495BC;}
	.st2{fill:#D62841;}
</style>
<link  href="https://fonts.googleapis.com/css?family=Kaushan+Script" rel="stylesheet"></link>
<sodipodi:namedview  id="namedview3682" inkscape:window-height="1001" inkscape:window-width="1920" inkscape:window-x="-9" inkscape:window-y="-9" inkscape:current-layer="svg3680" guidetolerance="10" gridtolerance="10" showgrid="false" inkscape:cy="327.34327" pagecolor="#ffffff" inkscape:cx="304.99279" bordercolor="#666666" borderopacity="1" inkscape:zoom="1.9044743" objecttolerance="10" inkscape:pageopacity="0" inkscape:pageshadow="2" inkscape:window-maximized="1">
	</sodipodi:namedview>
<g>
	<path class="st0" d="M-5.3,508.6c-0.2,0-0.3-0.1-0.3-0.4l0.2-57.9c0-0.2,0.1-0.3,0.3-0.3H5.2c0.2,0,0.4,0.1,0.6,0.3l7.7,11.1
		l7.7-11.1c0.2-0.2,0.4-0.3,0.6-0.3h10.4c0.2,0,0.3,0.1,0.3,0.3l0.2,57.9c0,0.3-0.1,0.4-0.3,0.4h-9.5c-0.2,0-0.3-0.1-0.3-0.4
		l-0.1-43l-8.8,12.8l-8.8-12.8l-0.1,43c0,0.3-0.1,0.4-0.3,0.4H-5.3z"/>
	<path class="st0" d="M40.1,508.6c-0.3,0-0.4-0.1-0.4-0.4l0.1-57.9c0-0.2,0.1-0.3,0.3-0.3h9.4c0.2,0,0.3,0.1,0.3,0.3l0.1,57.9
		c0,0.3-0.1,0.4-0.3,0.4H40.1z"/>
	<path class="st0" d="M58.1,508.6c-0.5,0-0.7-0.2-0.7-0.6l-0.1-57.4c0-0.4,0.2-0.7,0.7-0.7h7.6l14.2,33.2l-0.4-32.5
		c0-0.4,0.3-0.7,0.8-0.7h8.3c0.3,0,0.5,0.2,0.5,0.7l0.1,57.5c0,0.3-0.1,0.5-0.4,0.5h-7.4l-14.6-31l0.6,30.3c0,0.5-0.3,0.7-0.8,0.7
		H58.1z"/>
	<path class="st0" d="M96.8,508.6c-0.2,0-0.3-0.1-0.3-0.4l0.1-57.9c0-0.2,0.1-0.3,0.3-0.3h27.1c0.2,0,0.3,0.1,0.3,0.4v9.4
		c0,0.2-0.1,0.3-0.3,0.3h-17.3v13.1h17.3c0.2,0,0.3,0.1,0.3,0.3l0.1,9.5c0,0.2-0.1,0.3-0.3,0.3h-17.4v14.8H124
		c0.2,0,0.3,0.1,0.3,0.4v9.6c0,0.2-0.1,0.3-0.3,0.3H96.8z"/>
	<path class="st0" d="M146.1,509.5c-3,0-5.8-0.8-8.3-2.3c-2.5-1.5-4.5-3.6-6-6.2c-1.5-2.6-2.3-5.4-2.3-8.5l0.1-26.7
		c0-3.1,0.7-5.9,2.2-8.4c1.5-2.5,3.5-4.6,6-6.1c2.5-1.5,5.3-2.3,8.3-2.3c3,0,5.8,0.8,8.3,2.3c2.5,1.5,4.5,3.5,5.9,6.1
		c1.5,2.5,2.2,5.3,2.2,8.4l0.1,26.7c0,3.1-0.7,5.9-2.2,8.5c-1.5,2.6-3.5,4.6-6,6.2C151.9,508.7,149.1,509.5,146.1,509.5z
		 M146.1,499.3c1.7,0,3.2-0.7,4.4-2.1c1.3-1.4,1.9-2.9,1.9-4.7l-0.1-26.7c0-1.9-0.6-3.4-1.8-4.7c-1.2-1.3-2.7-1.9-4.5-1.9
		c-1.7,0-3.2,0.6-4.5,1.9c-1.2,1.3-1.9,2.9-1.9,4.8v26.7c0,1.9,0.6,3.4,1.9,4.8C142.9,498.6,144.4,499.3,146.1,499.3z"/>
	<path class="st0" d="M196.9,509.5c-3,0-5.8-0.8-8.3-2.3c-2.5-1.5-4.5-3.6-5.9-6.1c-1.5-2.6-2.2-5.4-2.2-8.6v-26.7
		c0-3,0.7-5.8,2.2-8.4c1.5-2.6,3.5-4.6,6-6.1c2.5-1.5,5.2-2.3,8.2-2.3c3.1,0,5.9,0.7,8.4,2.2c2.5,1.5,4.5,3.5,5.9,6
		c1.5,2.5,2.2,5.4,2.2,8.5v3.9c0,0.2-0.1,0.3-0.4,0.3h-9.4c-0.2,0-0.3-0.1-0.3-0.3v-3.2c0-2.1-0.6-3.9-1.8-5.3
		c-1.2-1.4-2.7-2.1-4.5-2.1c-1.6,0-3.1,0.7-4.3,2c-1.3,1.3-1.9,2.9-1.9,4.7v26.7c0,1.9,0.6,3.4,1.9,4.8c1.2,1.3,2.7,2,4.4,2
		c1.8,0,3.3-0.6,4.5-1.9c1.2-1.3,1.8-2.9,1.8-4.8v-4.1h-5.9c-0.3,0-0.4-0.1-0.4-0.4v-9.4c0-0.3,0.1-0.4,0.4-0.4h15.8
		c0.2,0,0.3,0.1,0.3,0.4v14c0,3.1-0.7,6-2.2,8.6c-1.5,2.6-3.5,4.6-5.9,6.1C202.8,508.7,200,509.5,196.9,509.5z"/>
	<path class="st0" d="M216.3,508.2l10.5-57.9c0.1-0.2,0.2-0.3,0.4-0.3h12.2c0.2,0,0.4,0.1,0.4,0.3l10,57.9c0.1,0.3-0.1,0.4-0.3,0.4
		h-9.4c-0.2,0-0.4-0.1-0.4-0.4l-0.9-6.2h-11.5l-0.9,6.2c-0.1,0.3-0.2,0.4-0.4,0.4h-9.4C216.4,508.6,216.3,508.5,216.3,508.2z
		 M229,493.1h8.1l-3.5-23.7l-0.5-3.1l-0.3,3.1L229,493.1z"/>
	<path class="st0" d="M255.5,508.6c-0.2,0-0.3-0.1-0.3-0.4l0.2-57.9c0-0.2,0.1-0.3,0.3-0.3H266c0.2,0,0.4,0.1,0.6,0.3l7.7,11.1
		l7.7-11.1c0.2-0.2,0.4-0.3,0.6-0.3h10.4c0.2,0,0.3,0.1,0.3,0.3l0.2,57.9c0,0.3-0.1,0.4-0.3,0.4h-9.5c-0.2,0-0.3-0.1-0.3-0.4
		l-0.1-43l-8.8,12.8l-8.8-12.8l-0.1,43c0,0.3-0.1,0.4-0.3,0.4H255.5z"/>
	<path class="st0" d="M300.8,508.6c-0.2,0-0.3-0.1-0.3-0.4l0.1-57.9c0-0.2,0.1-0.3,0.3-0.3h27.1c0.2,0,0.3,0.1,0.3,0.4v9.4
		c0,0.2-0.1,0.3-0.3,0.3h-17.3v13.1h17.3c0.2,0,0.3,0.1,0.3,0.3l0.1,9.5c0,0.2-0.1,0.3-0.3,0.3h-17.4v14.8H328
		c0.2,0,0.3,0.1,0.3,0.4v9.6c0,0.2-0.1,0.3-0.3,0.3H300.8z"/>
	<path class="st0" d="M349.6,509.5c-3,0-5.8-0.8-8.3-2.3c-2.5-1.5-4.5-3.6-6-6.2c-1.5-2.6-2.2-5.4-2.2-8.5v-3.9
		c0-0.3,0.1-0.4,0.4-0.4h9.4c0.2,0,0.3,0.1,0.3,0.4v3.9c0,1.9,0.6,3.4,1.9,4.8c1.2,1.3,2.7,2,4.5,2c1.7,0,3.2-0.7,4.5-2
		c1.2-1.3,1.9-2.9,1.9-4.7c0-2.1-1.3-3.9-4-5.4c-0.9-0.5-2.3-1.3-4.2-2.4c-1.9-1.1-3.7-2.1-5.4-3c-3.1-1.8-5.4-4.1-6.9-6.8
		c-1.5-2.7-2.2-5.8-2.2-9.2c0-3.1,0.8-6,2.3-8.5c1.5-2.5,3.5-4.5,6-5.9c2.5-1.5,5.2-2.2,8.1-2.2c3,0,5.7,0.7,8.2,2.2
		c2.5,1.5,4.5,3.5,6,6c1.5,2.5,2.2,5.3,2.2,8.4v6.9c0,0.2-0.1,0.3-0.3,0.3h-9.4c-0.2,0-0.3-0.1-0.3-0.3l-0.1-6.9
		c0-2-0.6-3.6-1.9-4.8c-1.2-1.2-2.7-1.9-4.4-1.9c-1.7,0-3.2,0.7-4.5,2c-1.2,1.3-1.9,2.9-1.9,4.7c0,1.9,0.4,3.4,1.2,4.6
		c0.8,1.2,2.2,2.4,4.3,3.5c0.3,0.2,0.8,0.5,1.6,0.9c0.8,0.4,1.7,0.9,2.7,1.4c1,0.5,1.8,1,2.6,1.4c0.8,0.4,1.2,0.6,1.4,0.8
		c2.8,1.6,5,3.5,6.7,5.8c1.6,2.3,2.4,5.1,2.4,8.4c0,3.2-0.7,6.1-2.2,8.6c-1.5,2.6-3.5,4.6-6,6.1
		C355.4,508.7,352.7,509.5,349.6,509.5z"/>
</g>
<polygon id="XMLID_84_" class="st1" points="157.1,413.2 113,413.2 113,369.1 135,391.2 "/>
<polygon id="XMLID_70_" class="st2" points="189.5,413.2 233.6,413.2 233.6,369.1 211.6,391.2 "/>
<path id="XMLID_63_" class="st0" d="M201.8,371.7l31.9-31.9h0v0l0,0l0,0v-13.3v-15.5L221.6,323L209.6,335h0l-7.9,7.9v0l-12.1,12.1
	l-16.4,16.1L157,355l-12.1-12.1v0l0,0l-7.8-7.8l-12-12v0L113,311v28.8v0h0l31.9,31.9h0l28.4,28.4L201.8,371.7L201.8,371.7
	L201.8,371.7L201.8,371.7z M144.9,371.7L144.9,371.7L144.9,371.7L144.9,371.7L144.9,371.7z"/>
</svg>
